<svg xmlns="http://www.w3.org/2000/svg" xmlns:xlink="http://www.w3.org/1999/xlink" viewBox="0 0 1660 981.19"><defs><style>.cls-1{fill:#f2f5f7;}.cls-105,.cls-107,.cls-110,.cls-15,.cls-2,.cls-25,.cls-39,.cls-41,.cls-52,.cls-61,.cls-64,.cls-84{fill:none;}.cls-2{stroke:#c4c8d2;stroke-width:0.5px;}.cls-105,.cls-107,.cls-110,.cls-2,.cls-55{stroke-miterlimit:10;}.cls-3,.cls-55{fill:#4cb0e3;}.cls-4{fill:#ede9f4;}.cls-5{fill:#e9edf7;}.cls-6{fill:#e4eff9;}.cls-7{fill:url(#linear-gradient);}.cls-8{fill:url(#New_Gradient_Swatch);}.cls-9{fill:#fee7de;}.cls-10{fill:url(#linear-gradient-2);}.cls-11{fill:#5f524d;}.cls-12{fill:#ffe1c7;}.cls-13{fill:url(#skin);}.cls-14{fill:#6e4c44;}.cls-15,.cls-41,.cls-64{stroke:#6e4c44;}.cls-105,.cls-107,.cls-108,.cls-109,.cls-110,.cls-15,.cls-25,.cls-39,.cls-41,.cls-52,.cls-61,.cls-64{stroke-linecap:round;}.cls-108,.cls-109,.cls-15,.cls-25,.cls-39,.cls-41,.cls-52,.cls-61,.cls-64{stroke-linejoin:round;}.cls-15{stroke-width:0.75px;}.cls-16{fill:#c37982;}.cls-17{fill:#f29f8c;}.cls-18{fill:url(#New_Gradient_Swatch_copy);}.cls-19{fill:#c2dff5;}.cls-20{fill:#ad8f9b;}.cls-21{fill:url(#New_Gradient_Swatch_copy_5);}.cls-22{fill:url(#New_Gradient_Swatch_copy_5-2);}.cls-23{fill:url(#New_Gradient_Swatch_copy_5-3);}.cls-24{fill:#e7f0fa;}.cls-25,.cls-39,.cls-61{stroke:#000;}.cls-25{stroke-width:0.25px;}.cls-26{fill:url(#linear-gradient-3);}.cls-27{fill:#fee7dc;}.cls-28{fill:url(#New_Gradient_Swatch_copy_2);}.cls-29{fill:url(#linear-gradient-4);}.cls-30{fill:url(#New_Gradient_Swatch_copy_3);}.cls-31{fill:url(#New_Gradient_Swatch_copy_3-2);}.cls-32{fill:#f9cbdf;}.cls-33{fill:url(#New_Gradient_Swatch_copy_4);}.cls-34{fill:url(#New_Gradient_Swatch_copy_4-2);}.cls-35{fill:url(#New_Gradient_Swatch_copy_4-3);}.cls-36{fill:url(#linear-gradient-5);}.cls-37{fill:url(#linear-gradient-6);}.cls-38{fill:url(#linear-gradient-7);}.cls-39{stroke-width:0.43px;}.cls-40{fill:url(#linear-gradient-8);}.cls-41{stroke-width:1.29px;}.cls-42{fill:url(#New_Gradient_Swatch_copy_2-2);}.cls-43{fill:url(#linear-gradient-9);}.cls-44{fill:url(#linear-gradient-10);}.cls-45{fill:url(#linear-gradient-11);}.cls-46{fill:url(#New_Gradient_Swatch_copy_2-3);}.cls-47{fill:url(#linear-gradient-12);}.cls-48{fill:url(#New_Gradient_Swatch_copy_2-4);}.cls-49{fill:url(#New_Gradient_Swatch_copy_4-4);}.cls-50{fill:url(#New_Gradient_Swatch_copy_6);}.cls-51{fill:url(#linear-gradient-13);}.cls-107,.cls-108,.cls-52,.cls-55{stroke:#4cb0e3;}.cls-52{stroke-width:2px;}.cls-53{fill:url(#linear-gradient-14);}.cls-54{fill:url(#New_Gradient_Swatch_copy_2-5);}.cls-56{fill:url(#New_Gradient_Swatch-2);}.cls-57{fill:url(#New_Gradient_Swatch_copy_5-4);}.cls-58{fill:url(#New_Gradient_Swatch_copy_5-5);}.cls-59{fill:url(#New_Gradient_Swatch_copy_5-6);}.cls-60{fill:url(#New_Gradient_Swatch_copy-2);}.cls-61{stroke-width:0.24px;}.cls-62{fill:url(#New_Gradient_Swatch_copy-3);}.cls-63{fill:url(#skin-2);}.cls-64{stroke-width:0.73px;}.cls-65{fill:url(#linear-gradient-15);}.cls-66{fill:url(#linear-gradient-16);}.cls-67{fill:url(#New_Gradient_Swatch_copy_2-6);}.cls-68{fill:url(#linear-gradient-17);}.cls-69{fill:url(#New_Gradient_Swatch_copy_3-3);}.cls-70{fill:url(#New_Gradient_Swatch_copy_3-4);}.cls-71{fill:url(#New_Gradient_Swatch_copy_4-5);}.cls-72{fill:url(#New_Gradient_Swatch_copy_7);}.cls-73{fill:url(#New_Gradient_Swatch_copy_6-2);}.cls-74{fill:url(#New_Gradient_Swatch_copy_4-6);}.cls-75{fill:url(#New_Gradient_Swatch_copy_4-7);}.cls-76{fill:#88bce6;}.cls-77{fill:url(#linear-gradient-18);}.cls-78{fill:url(#New_Gradient_Swatch_copy_2-7);}.cls-79{fill:url(#New_Gradient_Swatch_copy_6-3);}.cls-80{fill:url(#linear-gradient-19);}.cls-81{fill:url(#linear-gradient-20);}.cls-82{fill:url(#linear-gradient-21);}.cls-83{fill:url(#New_Gradient_Swatch_copy_6-4);}.cls-85{fill:url(#linear-gradient-22);}.cls-86{fill:url(#New_Gradient_Swatch_copy_2-8);}.cls-87{fill:url(#linear-gradient-23);}.cls-88{fill:#fdcd9d;}.cls-89{fill:url(#linear-gradient-24);}.cls-90{fill:url(#linear-gradient-25);}.cls-91{fill:url(#linear-gradient-26);}.cls-92{fill:url(#linear-gradient-27);}.cls-93{fill:url(#New_Gradient_Swatch_copy_2-9);}.cls-94{fill:url(#New_Gradient_Swatch_copy_6-5);}.cls-95{fill:url(#linear-gradient-28);}.cls-96{fill:url(#linear-gradient-29);}.cls-97{fill:#ebb28e;}.cls-98{fill:url(#linear-gradient-30);}.cls-99{fill:#eb8aa9;}.cls-100{fill:url(#linear-gradient-31);}.cls-101,.cls-102{font-size:20px;font-family:ProximaNova-Semibold, Proxima Nova;font-weight:600;}.cls-101,.cls-106,.cls-108,.cls-109{fill:#fff;}.cls-102{fill:#4b5996;}.cls-103{letter-spacing:-0.02em;}.cls-104{fill:url(#linear-gradient-32);}.cls-105,.cls-109,.cls-110{stroke:#4a82c6;}.cls-105,.cls-107,.cls-108,.cls-109{stroke-width:4px;}.cls-106{font-size:18px;}.cls-106,.cls-111,.cls-121,.cls-130{font-family:ProximaNova-Regular, Proxima Nova;}.cls-111{font-size:16.5px;}.cls-111,.cls-121{fill:#3c3f42;}.cls-112{letter-spacing:-0.03em;}.cls-113{letter-spacing:-0.02em;}.cls-114{letter-spacing:-0.01em;}.cls-115{letter-spacing:-0.08em;}.cls-116{letter-spacing:0em;}.cls-117{letter-spacing:-0.01em;}.cls-118{letter-spacing:-0.01em;}.cls-119{letter-spacing:-0.04em;}.cls-120{letter-spacing:-0.01em;}.cls-121,.cls-130{font-size:16px;}.cls-122{letter-spacing:-0.02em;}.cls-123{letter-spacing:-0.02em;}.cls-124{letter-spacing:0em;}.cls-125{letter-spacing:-0.01em;}.cls-126{letter-spacing:-0.05em;}.cls-127{letter-spacing:-0.01em;}.cls-128{letter-spacing:0em;}.cls-129{letter-spacing:-0.13em;}.cls-130{fill:#4a82c6;}.cls-131{letter-spacing:-0.01em;}.cls-132{letter-spacing:-0.08em;}</style><linearGradient id="linear-gradient" x1="297.25" y1="321.31" x2="275.27" y2="315.78" gradientUnits="userSpaceOnUse"><stop offset="0" stop-color="#3c9acf"/><stop offset="1" stop-color="#4cb0e3"/></linearGradient><radialGradient id="New_Gradient_Swatch" cx="264.25" cy="263.62" r="4.25" gradientUnits="userSpaceOnUse"><stop offset="0" stop-color="#f2cac1"/><stop offset="1" stop-color="#fee7de"/></radialGradient><linearGradient id="linear-gradient-2" x1="246.09" y1="248.54" x2="243.97" y2="252.23" gradientUnits="userSpaceOnUse"><stop offset="0" stop-color="#ffe1c7"/><stop offset="1" stop-color="#f3d1be"/></linearGradient><linearGradient id="skin" x1="219.96" y1="189.37" x2="224.43" y2="178.07" gradientUnits="userSpaceOnUse"><stop offset="0" stop-color="#ffe1c7"/><stop offset="0.55" stop-color="#fddec6"/><stop offset="0.89" stop-color="#f7d6c1"/><stop offset="1" stop-color="#f3d1be"/></linearGradient><linearGradient id="New_Gradient_Swatch_copy" x1="217.08" y1="342.8" x2="220.68" y2="263.34" gradientUnits="userSpaceOnUse"><stop offset="0" stop-color="#a0c1e2"/><stop offset="0.29" stop-color="#b0cfeb"/><stop offset="0.67" stop-color="#bddbf2"/><stop offset="1" stop-color="#c2dff5"/></linearGradient><linearGradient id="New_Gradient_Swatch_copy_5" x1="232.24" y1="217.75" x2="171.3" y2="273.84" gradientUnits="userSpaceOnUse"><stop offset="0" stop-color="#d64541"/><stop offset="0.01" stop-color="#d74945"/><stop offset="0.08" stop-color="#e0645b"/><stop offset="0.16" stop-color="#e67a6d"/><stop offset="0.26" stop-color="#ec8b7b"/><stop offset="0.38" stop-color="#ef9685"/><stop offset="0.54" stop-color="#f19d8a"/><stop offset="1" stop-color="#f29f8c"/></linearGradient><linearGradient id="New_Gradient_Swatch_copy_5-2" x1="203.93" y1="233.18" x2="244.29" y2="193.71" xlink:href="#New_Gradient_Swatch_copy_5"/><linearGradient id="New_Gradient_Swatch_copy_5-3" x1="227.5" y1="224.96" x2="245.83" y2="230.53" xlink:href="#New_Gradient_Swatch_copy_5"/><linearGradient id="linear-gradient-3" x1="294.17" y1="231.66" x2="305.94" y2="228.25" gradientUnits="userSpaceOnUse"><stop offset="0" stop-color="#483b39"/><stop offset="0.65" stop-color="#564945"/><stop offset="1" stop-color="#5f524d"/></linearGradient><linearGradient id="New_Gradient_Swatch_copy_2" x1="288.01" y1="238.08" x2="290.13" y2="244.77" gradientUnits="userSpaceOnUse"><stop offset="0" stop-color="#f2cac1"/><stop offset="0.23" stop-color="#f6d5cc"/><stop offset="0.64" stop-color="#fce2d9"/><stop offset="1" stop-color="#fee7de"/></linearGradient><linearGradient id="linear-gradient-4" x1="284.51" y1="267.45" x2="301.05" y2="285.43" gradientUnits="userSpaceOnUse"><stop offset="0" stop-color="#f6adcd"/><stop offset="0.24" stop-color="#f7b9d4"/><stop offset="0.64" stop-color="#f9c6dc"/><stop offset="1" stop-color="#f9cbdf"/></linearGradient><linearGradient id="New_Gradient_Swatch_copy_3" x1="274.55" y1="263.34" x2="272.26" y2="257.54" xlink:href="#linear-gradient-4"/><linearGradient id="New_Gradient_Swatch_copy_3-2" x1="289.41" y1="264.23" x2="283.94" y2="252.3" xlink:href="#linear-gradient-4"/><linearGradient id="New_Gradient_Swatch_copy_4" x1="284.97" y1="347.77" x2="268.79" y2="347.23" gradientUnits="userSpaceOnUse"><stop offset="0" stop-color="#846282"/><stop offset="0.24" stop-color="#91708a"/><stop offset="0.7" stop-color="#a68796"/><stop offset="1" stop-color="#ad8f9b"/></linearGradient><linearGradient id="New_Gradient_Swatch_copy_4-2" x1="219.92" y1="355.37" x2="225.04" y2="347.55" xlink:href="#New_Gradient_Swatch_copy_4"/><linearGradient id="New_Gradient_Swatch_copy_4-3" x1="427.97" y1="347.45" x2="406.76" y2="346.55" xlink:href="#New_Gradient_Swatch_copy_4"/><linearGradient id="linear-gradient-5" x1="424.83" y1="314.16" x2="402.9" y2="287.91" xlink:href="#linear-gradient"/><linearGradient id="linear-gradient-6" x1="439.23" y1="266.77" x2="416.85" y2="233.33" xlink:href="#linear-gradient-4"/><linearGradient id="linear-gradient-7" x1="391.98" y1="245.44" x2="392.16" y2="223.15" gradientUnits="userSpaceOnUse"><stop offset="0" stop-color="#f6adcd"/><stop offset="1" stop-color="#f9cbdf"/></linearGradient><linearGradient id="linear-gradient-8" x1="429.85" y1="189" x2="457.72" y2="182.35" xlink:href="#linear-gradient-3"/><linearGradient id="New_Gradient_Swatch_copy_2-2" x1="424.23" y1="200.96" x2="424.59" y2="209.94" xlink:href="#New_Gradient_Swatch_copy_2"/><linearGradient id="linear-gradient-9" x1="592.33" y1="314.38" x2="600.24" y2="290.11" xlink:href="#linear-gradient"/><linearGradient id="linear-gradient-10" x1="569.01" y1="266.06" x2="577.64" y2="220.03" xlink:href="#linear-gradient-4"/><linearGradient id="linear-gradient-11" x1="573.62" y1="184.29" x2="553.67" y2="176.92" xlink:href="#linear-gradient-3"/><linearGradient id="New_Gradient_Swatch_copy_2-3" x1="583.38" y1="203.54" x2="578.53" y2="217.92" xlink:href="#New_Gradient_Swatch_copy_2"/><linearGradient id="linear-gradient-12" x1="602.24" y1="250.48" x2="603.32" y2="226.48" xlink:href="#linear-gradient-4"/><linearGradient id="New_Gradient_Swatch_copy_2-4" x1="719.37" y1="182" x2="703.01" y2="180.2" xlink:href="#New_Gradient_Swatch_copy_2"/><linearGradient id="New_Gradient_Swatch_copy_4-4" x1="744.48" y1="354.53" x2="723.27" y2="353.63" xlink:href="#New_Gradient_Swatch_copy_4"/><linearGradient id="New_Gradient_Swatch_copy_6" x1="741.34" y1="321.24" x2="719.41" y2="294.99" xlink:href="#linear-gradient"/><linearGradient id="linear-gradient-13" x1="719.67" y1="266.18" x2="737.47" y2="216.56" xlink:href="#linear-gradient-4"/><linearGradient id="linear-gradient-14" x1="752.46" y1="193.13" x2="770.44" y2="190.25" xlink:href="#linear-gradient-3"/><linearGradient id="New_Gradient_Swatch_copy_2-5" x1="739.74" y1="207.63" x2="741.9" y2="220.3" xlink:href="#New_Gradient_Swatch_copy_2"/><radialGradient id="New_Gradient_Swatch-2" cx="924.31" cy="266.84" r="4.25" xlink:href="#New_Gradient_Swatch"/><linearGradient id="New_Gradient_Swatch_copy_5-4" x1="861.74" y1="232.27" x2="921.29" y2="188.27" xlink:href="#New_Gradient_Swatch_copy_5"/><linearGradient id="New_Gradient_Swatch_copy_5-5" x1="894.14" y1="226.08" x2="799.8" y2="254.27" xlink:href="#New_Gradient_Swatch_copy_5"/><linearGradient id="New_Gradient_Swatch_copy_5-6" x1="890.92" y1="220.7" x2="919.2" y2="228.79" xlink:href="#New_Gradient_Swatch_copy_5"/><linearGradient id="New_Gradient_Swatch_copy-2" x1="875.07" y1="293.8" x2="881.66" y2="263.75" xlink:href="#New_Gradient_Swatch_copy"/><linearGradient id="New_Gradient_Swatch_copy-3" x1="871.56" y1="297.7" x2="840.2" y2="386.77" xlink:href="#New_Gradient_Swatch_copy"/><linearGradient id="skin-2" x1="886.49" y1="187.16" x2="891.37" y2="175.83" xlink:href="#skin"/><linearGradient id="linear-gradient-15" x1="957.32" y1="324.53" x2="935.34" y2="319" xlink:href="#linear-gradient"/><linearGradient id="linear-gradient-16" x1="957.43" y1="232.86" x2="966.9" y2="232.86" xlink:href="#linear-gradient-3"/><linearGradient id="New_Gradient_Swatch_copy_2-6" x1="948.08" y1="241.3" x2="950.19" y2="247.99" xlink:href="#New_Gradient_Swatch_copy_2"/><linearGradient id="linear-gradient-17" x1="944.58" y1="270.67" x2="961.12" y2="288.65" xlink:href="#linear-gradient-4"/><linearGradient id="New_Gradient_Swatch_copy_3-3" x1="934.61" y1="266.56" x2="932.32" y2="260.76" xlink:href="#linear-gradient-4"/><linearGradient id="New_Gradient_Swatch_copy_3-4" x1="949.47" y1="267.45" x2="944.01" y2="255.52" xlink:href="#linear-gradient-4"/><linearGradient id="New_Gradient_Swatch_copy_4-5" x1="945.03" y1="350.99" x2="928.85" y2="350.45" xlink:href="#New_Gradient_Swatch_copy_4"/><radialGradient id="New_Gradient_Swatch_copy_7" cx="1073.29" cy="207.67" r="29.03" xlink:href="#linear-gradient-3"/><linearGradient id="New_Gradient_Swatch_copy_6-2" x1="1073.56" y1="347" x2="1073.2" y2="277.96" xlink:href="#linear-gradient"/><linearGradient id="New_Gradient_Swatch_copy_4-6" x1="1063.33" y1="345.07" x2="1062.92" y2="362.87" xlink:href="#New_Gradient_Swatch_copy_4"/><linearGradient id="New_Gradient_Swatch_copy_4-7" x1="1082.56" y1="345.88" x2="1082.42" y2="360.17" xlink:href="#New_Gradient_Swatch_copy_4"/><linearGradient id="linear-gradient-18" x1="1072.37" y1="267.72" x2="1072.37" y2="213.53" xlink:href="#linear-gradient-4"/><linearGradient id="New_Gradient_Swatch_copy_2-7" x1="1218.19" y1="198.5" x2="1214.78" y2="213.42" xlink:href="#New_Gradient_Swatch_copy_2"/><linearGradient id="New_Gradient_Swatch_copy_6-3" x1="1217.33" y1="306.1" x2="1195.65" y2="284.14" xlink:href="#linear-gradient"/><linearGradient id="linear-gradient-19" x1="1206.49" y1="266.14" x2="1214.03" y2="201.11" xlink:href="#linear-gradient-4"/><linearGradient id="linear-gradient-20" x1="1134.91" y1="159.76" x2="1114.95" y2="152.39" gradientTransform="matrix(-0.82, -0.58, -0.58, 0.82, 2250.33, 711.49)" xlink:href="#linear-gradient-3"/><linearGradient id="linear-gradient-21" x1="1406.82" y1="261.26" x2="1426.96" y2="280.32" xlink:href="#linear-gradient-4"/><linearGradient id="New_Gradient_Swatch_copy_6-4" x1="1390.79" y1="301.91" x2="1384.59" y2="289.68" xlink:href="#linear-gradient"/><linearGradient id="linear-gradient-22" x1="950.23" y1="132.04" x2="930.28" y2="124.67" gradientTransform="matrix(-1, -0.01, -0.01, 1, 2354.06, 75.46)" xlink:href="#linear-gradient-3"/><linearGradient id="New_Gradient_Swatch_copy_2-8" x1="1390.93" y1="220.31" x2="1403.52" y2="220.31" xlink:href="#New_Gradient_Swatch_copy_2"/><linearGradient id="linear-gradient-23" x1="1407.69" y1="316.82" x2="1341.89" y2="316.55" gradientUnits="userSpaceOnUse"><stop offset="0" stop-color="#fdcd9d"/><stop offset="0.03" stop-color="#fccb9c"/><stop offset="0.64" stop-color="#f0b190"/><stop offset="1" stop-color="#eba78b"/></linearGradient><linearGradient id="linear-gradient-24" x1="1337.51" y1="319.33" x2="1340.48" y2="249.76" xlink:href="#linear-gradient-23"/><linearGradient id="linear-gradient-25" x1="1371.56" y1="278.6" x2="1342.8" y2="284.53" xlink:href="#linear-gradient-23"/><linearGradient id="linear-gradient-26" x1="1369.49" y1="296.73" x2="1380.72" y2="306.35" xlink:href="#linear-gradient-23"/><linearGradient id="linear-gradient-27" x1="1385.02" y1="290.23" x2="1376.39" y2="235.22" xlink:href="#linear-gradient-4"/><linearGradient id="New_Gradient_Swatch_copy_2-9" x1="1431.2" y1="213.88" x2="1427.78" y2="228.8" gradientTransform="matrix(-1, 0, 0, 1, 2991.78, 0)" xlink:href="#New_Gradient_Swatch_copy_2"/><linearGradient id="New_Gradient_Swatch_copy_6-5" x1="1430.34" y1="321.48" x2="1408.65" y2="299.53" gradientTransform="matrix(-1, 0, 0, 1, 2991.78, 0)" xlink:href="#linear-gradient"/><linearGradient id="linear-gradient-28" x1="1419.5" y1="281.52" x2="1427.04" y2="216.49" gradientTransform="matrix(-1, 0, 0, 1, 2991.78, 0)" xlink:href="#linear-gradient-4"/><linearGradient id="linear-gradient-29" x1="951.8" y1="49.86" x2="931.84" y2="42.49" gradientTransform="matrix(0.82, -0.58, 0.58, 0.82, 741.45, 711.49)" xlink:href="#linear-gradient-3"/><linearGradient id="linear-gradient-30" x1="1605.73" y1="162.43" x2="1589.73" y2="152.36" xlink:href="#linear-gradient-23"/><linearGradient id="linear-gradient-31" x1="1594.59" y1="131.86" x2="1604.16" y2="139.14" gradientUnits="userSpaceOnUse"><stop offset="0" stop-color="#db6186"/><stop offset="1" stop-color="#eb8aa9"/></linearGradient><linearGradient id="linear-gradient-32" x1="900.1" y1="386.63" x2="900.1" y2="729.88" gradientUnits="userSpaceOnUse"><stop offset="0" stop-color="#4cb0e3"/><stop offset="0.22" stop-color="#4cb0e3" stop-opacity="0.73"/><stop offset="0.5" stop-color="#4cb0e3" stop-opacity="0.42"/><stop offset="0.73" stop-color="#4cb0e3" stop-opacity="0.19"/><stop offset="0.9" stop-color="#4cb0e3" stop-opacity="0.05"/><stop offset="1" stop-color="#4cb0e3" stop-opacity="0"/></linearGradient></defs><title>User Journey Map</title><g id="Layer_2" data-name="Layer 2"><rect class="cls-1" width="1660" height="981.19"/><line class="cls-2" x1="175.85" y1="624.52" x2="1624.36" y2="624.52"/></g><g id="Layer_1" data-name="Layer 1"><rect class="cls-3" x="31.04" y="98" width="138.91" height="349.07" rx="8"/><path class="cls-3" d="M10.5,783.73h184a4,4,0,0,1,4,4V918.65a4,4,0,0,1-4,4H6.5a4,4,0,0,1-4-4V791.73a8,8,0,0,1,8-8Z" transform="translate(953.69 752.69) rotate(90)"/><rect class="cls-3" x="-43.56" y="531.67" width="288.12" height="138.91" rx="8" transform="translate(701.63 500.63) rotate(90)"/><rect class="cls-3" x="70.5" y="-9.46" width="60" height="138.91" rx="8" transform="translate(160.5 -40.5) rotate(90)"/><rect class="cls-4" x="178.33" y="30" width="311.84" height="60" rx="8"/><rect class="cls-4" x="179.45" y="98" width="150" height="349.07" rx="8"/><rect class="cls-4" x="179.45" y="755.19" width="215.82" height="196" rx="8"/><rect class="cls-4" x="408.77" y="755.19" width="216.34" height="196" rx="8"/><rect class="cls-5" x="637.44" y="755.19" width="236.69" height="196" rx="8"/><rect class="cls-5" x="885.45" y="755.19" width="247.3" height="196" rx="8"/><rect class="cls-5" x="1143.54" y="755.19" width="253.68" height="196" rx="8"/><rect class="cls-6" x="1406.87" y="755.19" width="217.5" height="196" rx="8"/><rect class="cls-4" x="340.17" y="98" width="150" height="349.07" rx="8"/><rect class="cls-5" x="501.14" y="98" width="150" height="349.07" rx="8"/><rect class="cls-5" x="663.35" y="98" width="150" height="349.07" rx="8"/><rect class="cls-5" x="825.55" y="98" width="150" height="349.07" rx="8"/><rect class="cls-5" x="987.75" y="98" width="150" height="349.07" rx="8"/><rect class="cls-5" x="1149.96" y="98" width="150" height="349.07" rx="8"/><rect class="cls-5" x="1312.16" y="98" width="150" height="349.07" rx="8"/><rect class="cls-6" x="1474.36" y="98" width="150" height="349.07" rx="8"/><rect class="cls-5" x="500.73" y="30" width="960.85" height="60" rx="8"/><rect class="cls-6" x="1474.36" y="30" width="150" height="60" rx="8"/><path class="cls-7" d="M286.26,325.51c-.44,5.91-1.37,13.68-1.89,18.21a6.09,6.09,0,0,0-3.08.64h-2.22c-.65-18.11-2-36.34-2.48-54.46,2,.06,4,.09,6,.11,0,0,.16,4.2.6,8.75S285,316.58,286.26,325.51Z" transform="translate(0 0)"/><path class="cls-3" d="M298.09,290h0c-.44,17.91-.67,36.52-2.73,54.33-2.1.05-4.06,0-6.12.13-1.13-6.22-2.12-12.58-3-19-1.22-8.93-2.59-22.2-3-26.75s-.6-8.75-.6-8.75C287.71,290.06,293,290,298.09,290Z" transform="translate(0 0)"/><path class="cls-8" d="M267.94,264.45a17.74,17.74,0,0,1-3.85,1,3.69,3.69,0,0,1-3.66-1.3,1.56,1.56,0,0,1-.22-.45,1.31,1.31,0,0,1,.9-1.6h0l.41-.12a12.32,12.32,0,0,1,3.44-.24l2,.09h.55l.22,1.62Z" transform="translate(0 0)"/><path class="cls-9" d="M268.48,263.86l-1,2.46-.19,0a18.63,18.63,0,0,1-3.19-.86c-1.45-.56-2.7-1.45-2.93-2.95,0-.06,0-.13,0-.2a.74.74,0,0,1,0-.21,1.2,1.2,0,0,1,1.17-1.22h0a1.55,1.55,0,0,1,.43,0,8.58,8.58,0,0,1,2.24.86c.7.37,1.37.8,2,1.23l.24.15h0l.54.34.49.31Z" transform="translate(0 0)"/><path class="cls-10" d="M249,253.83a4.4,4.4,0,0,1-2.83.45,12.9,12.9,0,0,1-7-3.6l-.12-.13,2-3.27a16.49,16.49,0,0,0,6,2.91c-.4.62-.81,1.24-1.28,1.92.62.21,1.29.42,2,.69A1.89,1.89,0,0,1,249,253.83Z" transform="translate(0 0)"/><path class="cls-11" d="M246.44,153.88c-.43,2.27-2.27,3.59-4.46,4.14a10.73,10.73,0,0,1-6.88-.6c-7-3.47-9.42-4.13-10.23,4.76-2-1.46-3.29.5-3,2.62a5.21,5.21,0,0,0,1.73,3.35,5,5,0,0,1-4.2,1.7c-.6-5.4-.56-17.94,4.14-21.29C231.56,144.09,239.22,151.64,246.44,153.88Z" transform="translate(0 0)"/><path class="cls-12" d="M235.1,157.42c-7-3.47-9.42-4.13-10.23,4.76-2-1.46-3.29.5-3,2.62a5.21,5.21,0,0,0,1.73,3.35,5,5,0,0,1-4.2,1.7,21,21,0,0,1,.2,4.62c3.26,4.06,6.17,5.75,8.73,5.81,7.29.2,11.77-12.8,13.6-22.26A10.73,10.73,0,0,1,235.1,157.42Zm-4.55,6.38c1-.34,1.18.56,1.12,1.13a2.29,2.29,0,0,1-.72,1.55c-.77.61-1.38-.17-1.34-.88A2.11,2.11,0,0,1,230.55,163.8Zm1.72,12.67a3.68,3.68,0,0,1-4.46-2.49c-.14-.93.44-.84.6-.36s1.81,2.63,3.85,2.43C233.4,176,232.57,176.38,232.27,176.47Zm6.2-9.43a2.29,2.29,0,0,1-.72,1.55c-.77.61-1.38-.17-1.33-.88a2.08,2.08,0,0,1,.93-1.8C238.33,165.57,238.53,166.47,238.47,167Z" transform="translate(0 0)"/><path class="cls-13" d="M228.38,180.28a28.59,28.59,0,0,0-2.13,8.87c-2.86,4-6.29-2-10-2.48a36.41,36.41,0,0,0,3.42-12.2C222.91,178.53,225.82,180.22,228.38,180.28Z" transform="translate(0 0)"/><path class="cls-14" d="M231.67,164.93a2.29,2.29,0,0,1-.72,1.55c-.77.61-1.38-.17-1.34-.88a2.11,2.11,0,0,1,.94-1.8C231.53,163.46,231.73,164.36,231.67,164.93Z" transform="translate(0 0)"/><path class="cls-14" d="M238.47,167a2.29,2.29,0,0,1-.72,1.55c-.77.61-1.38-.17-1.33-.88a2.08,2.08,0,0,1,.93-1.8C238.33,165.57,238.53,166.47,238.47,167Z" transform="translate(0 0)"/><path id="STROKE_7d524fa2-6789-4ca9-ad56-6aa17e8cc972" data-name="STROKE 7d524fa2-6789-4ca9-ad56-6aa17e8cc972" class="cls-15" d="M234.26,170c-.25,1.16-.86,3.91-2.38,2.27" transform="translate(0 0)"/><path class="cls-16" d="M232.27,176.47a3.68,3.68,0,0,1-4.46-2.49c-.14-.93.44-.84.6-.36s1.81,2.63,3.85,2.43C233.4,176,232.57,176.38,232.27,176.47Z" transform="translate(0 0)"/><path class="cls-16" d="M281.84,235.28c-.56,1.52-2.36,2.48-4.52,2.09-.72-.13-.82-.54-.12-.48a3,3,0,0,0,.85,0,5.66,5.66,0,0,0,2-.85,4.25,4.25,0,0,0,.81-.66,1.07,1.07,0,0,1,.79-.43C281.86,234.92,281.91,235.09,281.84,235.28Z" transform="translate(0 0)"/><path class="cls-17" d="M240.26,248.88c-1,1.56-2.24,3.54-2.58,4.18a74.5,74.5,0,0,1-9-5.14c-14.26-9.44-28.26-25.26-25.84-42.28a.09.09,0,0,0,0,0c2.3-10.6,5.65-17.45,11.75-18.75a3.52,3.52,0,0,1,1.66-.17,5.55,5.55,0,0,1,1.73.59s-1.73-.59-2.74,13c-1,14.63,6.87,31.49,14.64,39.92a57.49,57.49,0,0,0,5.61,5.21A55.72,55.72,0,0,0,240.26,248.88Z" transform="translate(0 0)"/><path class="cls-18" d="M226.88,261.88c-3,28.26-9.48,55.66-11.69,84l-4.38-.08c1.49-24.63,7.09-59.9,8.41-84.51Z" transform="translate(0 0)"/><path class="cls-19" d="M219.22,261.31c-1.32,24.61-6.92,59.88-8.41,84.51h-.25l-7-.15c-2.3-28.79-8-56.66-6.71-85.63v-.27C198,259.76,210.7,260.68,219.22,261.31Z" transform="translate(0 0)"/><path class="cls-20" d="M230,356.15l-5.43.05h-.12c-5.58,0-11.15-.05-16.73,0h-.29c-1.5,0-3-.06-4.51-.1.12-3.45.9-6.95.62-10.4l7,.15C215.61,351.76,226,348.87,230,356.15Z" transform="translate(0 0)"/><path class="cls-21" d="M228.65,247.92c-.82,5.1-1.32,9.22-1.77,14-.54,0-28.33-2.13-30.06-2.11.18-12.48,1.93-24.84,3.31-37.18.78-6.33,1.62-12,2.68-17C200.39,222.66,214.39,238.48,228.65,247.92Z" transform="translate(0 0)"/><path class="cls-22" d="M232.87,206.53v0c0,2.2-.15,4.32-.19,6.21-.41,7.47-1.36,15.19-2.27,22.74h0c-.19,1.57-.37,3.13-.55,4.67-7.77-8.43-15.68-25.29-14.64-39.92,1-13.59,2.74-13,2.74-13,3.06,1.56,5.88,5.27,8.29,1.89C232.24,192.83,233,200,232.87,206.53Z" transform="translate(0 0)"/><path class="cls-23" d="M241.43,246.93c-.13.28-.6,1-1.17,1.95a55.72,55.72,0,0,1-4.79-3.49,72.43,72.43,0,0,1-5.06-9.88h0c.91-7.55,1.86-15.27,2.27-22.74,0-1.89.16-4,.19-6.21C234.24,221.76,234.86,232.81,241.43,246.93Z" transform="translate(0 0)"/><path class="cls-12" d="M245.09,256.27a11.59,11.59,0,0,1-2.28-.6,12.36,12.36,0,0,1-4.84-3.12l1.17-1.87.87-1.4a16.08,16.08,0,0,0,5.73,2.83c.62.21,1.29.42,2,.69a1.89,1.89,0,0,1,1.21,1C249.43,255.07,247.67,256.67,245.09,256.27Z" transform="translate(0 0)"/><path class="cls-24" d="M266.23,254.34c-2.51,4.23-4.54,8.21-8.16,11.62-6.28-1.78-12.27-4.58-18.22-7.25a26.4,26.4,0,0,0,3-3,11.59,11.59,0,0,0,2.28.6c2.58.4,4.34-1.2,3.88-2.44a1.89,1.89,0,0,0-1.21-1c-.73-.27-1.4-.48-2-.69.47-.68.88-1.3,1.28-1.92.54-.87,1.06-1.74,1.69-2.78A74.74,74.74,0,0,0,266.23,254.34Z" transform="translate(0 0)"/><path class="cls-11" d="M298.58,224.36a20.67,20.67,0,0,1-2.3,9,9.06,9.06,0,0,1-7.8-3.67c2.08-1.52,1-5.3-1.54-3.46-3.17-4.89-6.52-4-14.56-4.27l-1,0c1.94-10.06,15.18-14.77,22.82-8a15.32,15.32,0,0,1,3.16,4.61A14.3,14.3,0,0,1,298.58,224.36Z" transform="translate(0 0)"/><path class="cls-25" d="M287,226.38l-.09-.13" transform="translate(0 0)"/><path class="cls-25" d="M288.48,229.71l-.07-.09" transform="translate(0 0)"/><path class="cls-26" d="M302.75,241.4c-.16-6.23,1.45-13-4.17-17a14.3,14.3,0,0,0-1.21-5.85C311.72,214.12,306.48,234.23,302.75,241.4Z" transform="translate(0 0)"/><path class="cls-27" d="M288.48,229.71c2.08-1.52,1-5.3-1.54-3.46-3.17-4.89-6.52-4-14.56-4.27-1.88,7.21,1.09,17.91,8.8,19.11a13.23,13.23,0,0,0,4.61-.1,15.16,15.16,0,0,0,6.6-3.09,16.15,16.15,0,0,0,3.89-4.52A9.06,9.06,0,0,1,288.48,229.71Zm-14.54-1.29a.68.68,0,0,1-1.14,0,1.48,1.48,0,0,1,.07-1.33.69.69,0,0,1,1.18.1A1.56,1.56,0,0,1,273.94,228.42Zm3.91-1.37a.69.69,0,0,1,1.18.1,1.56,1.56,0,0,1-.11,1.27.68.68,0,0,1-1.14,0A1.48,1.48,0,0,1,277.85,227.05Zm4,8.23c-.56,1.52-2.36,2.48-4.52,2.09-.72-.13-.82-.54-.12-.48a3,3,0,0,0,.85,0,5.66,5.66,0,0,0,2-.85,4.25,4.25,0,0,0,.81-.66,1.07,1.07,0,0,1,.79-.43C281.86,234.92,281.91,235.09,281.84,235.28Z" transform="translate(0 0)"/><path class="cls-14" d="M273.94,228.42a.68.68,0,0,1-1.14,0,1.48,1.48,0,0,1,.07-1.33.69.69,0,0,1,1.18.1A1.56,1.56,0,0,1,273.94,228.42Z" transform="translate(0 0)"/><path class="cls-14" d="M278.92,228.42a.68.68,0,0,1-1.14,0,1.48,1.48,0,0,1,.07-1.33.69.69,0,0,1,1.18.1A1.56,1.56,0,0,1,278.92,228.42Z" transform="translate(0 0)"/><path id="STROKE_fcb536d8-00b4-44f3-90ea-53f8eb61c44a" data-name="STROKE fcb536d8-00b4-44f3-90ea-53f8eb61c44a" class="cls-15" d="M276,230.87l-.09.21c0,.07,0,.13-.05.18a.75.75,0,0,0,0,.16,1,1,0,0,0,0,.16v.11a.49.49,0,0,0,0,.11l0,.1a.14.14,0,0,0,0,.07.64.64,0,0,0,.06.1.44.44,0,0,0,.06.1l.07.08.08.07.1.08.29.19" transform="translate(0 0)"/><path class="cls-28" d="M292.63,243.57a9,9,0,0,1-6.91,1.29,9.65,9.65,0,0,0,.07-3.87,15.16,15.16,0,0,0,6.6-3.09C292.4,239.78,292.49,241.81,292.63,243.57Z" transform="translate(0 0)"/><path class="cls-29" d="M299.78,253c-1.45,12-1.57,24.71-1.69,36.83v.2c-7.1,0-14.75.07-21.5-.12-.37-6.06.07-13.34-.09-19.53a13.19,13.19,0,0,0,8.67-.9C290.59,267.06,298.33,259.48,299.78,253Z" transform="translate(0 0)"/><path class="cls-30" d="M277,252.39c0,2.33-.26,7.11-.34,9-1.49,1.13-3.84,2.7-5.7,2.9a15.55,15.55,0,0,1-2.46-1.09c0,.09-.09.25-.18.48l0,.07-.49-.31-.22-1.62h-.23C272.7,259.9,275.06,256,277,252.39Z" transform="translate(0 0)"/><path class="cls-31" d="M293.32,243.76a76.47,76.47,0,0,1-3.51,10.53c-2.64,6-7.56,10.31-13.32,10.75.06-1.13.12-2.38.17-3.66.08-1.88.3-6.66.34-9h0c2.15-4,3.78-7.56,8.36-7.57l.36.05a9,9,0,0,0,6.91-1.29Z" transform="translate(0 0)"/><path class="cls-32" d="M299.78,253c-1.45,6.49-9.19,14.07-14.61,16.48a13.19,13.19,0,0,1-8.67.9,40.54,40.54,0,0,1-9.43-3.63c.09-.2.15-.33.18-.38l0-.08,0,0,.08-.21.16-.38a3.6,3.6,0,0,1,.14-.35l.15-.39.2-.51c.06-.16.15-.37.26-.66l0-.07c.09-.23.14-.39.18-.48a15.55,15.55,0,0,0,2.46,1.09,13.66,13.66,0,0,0,5.53.76c5.76-.44,10.68-4.72,13.32-10.75a76.47,76.47,0,0,0,3.51-10.53C299.18,245.45,300.67,249,299.78,253Z" transform="translate(0 0)"/><path class="cls-20" d="M295.79,351.67c-5.54.22-11.06.35-16.63.12-.39-4.16.36-6.43,2.13-7.43a6.09,6.09,0,0,1,3.08-.64,22.54,22.54,0,0,1,4.87.77c2.06-.12,4-.08,6.12-.13C295.38,347,295.66,349.08,295.79,351.67Z" transform="translate(0 0)"/><path class="cls-33" d="M279.16,351.79c-6.4-.12-5-.08-10.27-.24-.74-8.16,2.82-10.1,10.18-7.19h2.22C279.52,345.36,278.77,347.63,279.16,351.79Z" transform="translate(0 0)"/><path class="cls-34" d="M230,356.15c-4-7.28-14.38-4.39-19.43-10.33h.25l4.38.08c5.05,5.94,15.88,3,19.86,10.22C231.55,356.18,231.45,356.13,230,356.15Z" transform="translate(0 0)"/><path class="cls-35" d="M416.19,352.09c-2.68,0-4.31-.15-6.92-.24-2.51-5.84,3.46-10.61,10-10a9.43,9.43,0,0,1,1.38.22C417.4,343.25,415.45,346.19,416.19,352.09Z" transform="translate(0 0)"/><path class="cls-36" d="M429.22,342.13c-3.17-.69-6.23-.85-8.61,0a9.43,9.43,0,0,0-1.38-.22c-3.69-23.46-5.93-46.79-8.81-70.53,2.51.1,5.09.22,7.71.31C421,292.06,424.15,322.44,429.22,342.13Z" transform="translate(0 0)"/><path class="cls-24" d="M376.71,235.41c-6.87.52-13.06,1.38-19.88,0-3-8.63-4.59-17.75-6.3-26.72,2.18.45,18.37,1.22,20.07,1.1A104.25,104.25,0,0,0,376.71,235.41Z" transform="translate(0 0)"/><path class="cls-9" d="M378.06,239.27l-2.16,4.39-.34-.1a34.15,34.15,0,0,1-5.75-2c-2.59-1.21-4.78-3-5-5.78,0-.11,0-.24,0-.37a1.56,1.56,0,0,1,0-.38,2.21,2.21,0,0,1,2.3-2.1h0a3,3,0,0,1,.79.06,15.81,15.81,0,0,1,4,1.85c1.24.77,2.42,1.64,3.58,2.51l.42.31v0c.32.22.63.46.95.69s.58.42.86.63Z" transform="translate(0 0)"/><path class="cls-9" d="M451.54,265.68l-4.3,1.37c0,.11,0,.22,0,.35a36.86,36.86,0,0,0,.74,6c.62,2.76,1.83,5.21,4.27,5.93.09,0,.21,0,.32.07a1.11,1.11,0,0,0,.35,0,2.09,2.09,0,0,0,2.28-1.9h0a3.42,3.42,0,0,0,.09-.79,16.55,16.55,0,0,0-.94-4.26c-.47-1.35-1-2.66-1.61-4l-.2-.47h0c-.15-.35-.31-.7-.45-1.05s-.28-.65-.41-1C451.65,265.93,451.6,265.8,451.54,265.68Z" transform="translate(0 0)"/><path class="cls-37" d="M439,248.36c-.28,7.21-.48,15.07-.66,23.22a197.9,197.9,0,0,1-20.25.1c-2.62-.09-5.2-.21-7.71-.31-.83-8.93-1.19-21.9-1.53-34.31h0c-.2-7.09-.39-14-.66-19.87,2.65-3.87,6-7,10.78-8.06,3.48,1.5,7.54.74,10.89-.79a23.58,23.58,0,0,1,3,1.32h0c-1.36,6.73,1,17.87,3.33,27.35C437.37,241.59,438.26,245.27,439,248.36Z" transform="translate(0 0)"/><path class="cls-32" d="M452.72,265.68a40.1,40.1,0,0,1-6.84,2c-3.38-6.57-4.68-10.7-6.84-19.28-.78-3.09-1.67-6.77-2.81-11.35-2.36-9.48-4.69-20.62-3.33-27.35C449.32,218.25,443.6,241.45,452.72,265.68Z" transform="translate(0 0)"/><path class="cls-20" d="M436.23,342.38c-.16,3.43-.32,6.46-.44,9.79-7,0-13.24,0-19.6-.08-.74-5.9,1.21-8.84,4.42-10,2.38-.84,5.44-.68,8.61,0C431.74,342.25,433.47,342.27,436.23,342.38Z" transform="translate(0 0)"/><path class="cls-3" d="M438.38,271.58c-.52,24.3-.79,51-2.15,70.8-2.76-.11-4.49-.13-7-.25-5.07-19.69-8.24-50.07-11.09-70.45A197.9,197.9,0,0,0,438.38,271.58Z" transform="translate(0 0)"/><path class="cls-38" d="M408.89,237.05h0c-8.05,16.28-17.92,15.4-33.73,7.18,1-2.18,2.53-4.72,3.09-5.72,20.09,11.34,21.54-9,30-21.34C408.5,223.05,408.69,230,408.89,237.05Z" transform="translate(0 0)"/><path class="cls-11" d="M444.85,175.22a35.59,35.59,0,0,1-4.42,15.36,15.58,15.58,0,0,1-13.19-6.7c3.65-2.5,1.94-9-2.46-6-5.19-8.55-11-7.17-24.76-8.08l-1.7-.12c3.85-17.16,26.81-24.55,39.57-12.61a26.13,26.13,0,0,1,5.18,8.07A24.57,24.57,0,0,1,444.85,175.22Z" transform="translate(0 0)"/><path class="cls-39" d="M424.93,178.09a2.3,2.3,0,0,0-.15-.23" transform="translate(0 0)"/><path class="cls-39" d="M427.24,183.88a1.16,1.16,0,0,1-.11-.16" transform="translate(0 0)"/><path class="cls-40" d="M451.12,204.67c.05-10.7,3.16-22.18-6.27-29.45a24.57,24.57,0,0,0-1.78-10.1C467.92,158.33,457.89,192.56,451.12,204.67Z" transform="translate(0 0)"/><path class="cls-27" d="M437.64,190.35a16,16,0,0,1-5.52-1.92,14.71,14.71,0,0,1-1.57-1,14.55,14.55,0,0,1-3.3-3.51h0a4.62,4.62,0,0,0,1.51-1.74,4.1,4.1,0,0,0-.29-4.35.77.77,0,0,0-.18-.18,2.09,2.09,0,0,0-1.86-.48,2.8,2.8,0,0,0-.51.14l-.27.11a4.41,4.41,0,0,0-.56.3l-.3.19a19,19,0,0,0-2.5-3.33,13.67,13.67,0,0,0-1.06-1,12.77,12.77,0,0,0-5.74-2.63c-.39-.08-.8-.16-1.21-.22a80.15,80.15,0,0,0-8.35-.62l-2.23-.1c-1.16,0-2.38-.12-3.67-.2-3.6,12.27.94,30.78,14.11,33.24a23.22,23.22,0,0,0,7.91.07,25.84,25.84,0,0,0,7.72-2.58,26.78,26.78,0,0,0,3.77-2.38,27.67,27.67,0,0,0,6.89-7.55,0,0,0,0,0,0,0A17.13,17.13,0,0,1,437.64,190.35Zm-35.28-9.44a1.17,1.17,0,0,1-1.95-.13,2.55,2.55,0,0,1,.19-2.28,1.19,1.19,0,0,1,2,.23A2.68,2.68,0,0,1,402.36,180.91Zm6.78-2.15a1.18,1.18,0,0,1,2,.23,2.7,2.7,0,0,1-.25,2.17,1.17,1.17,0,0,1-2-.12A2.58,2.58,0,0,1,409.14,178.76Z" transform="translate(0 0)"/><path class="cls-14" d="M402.36,180.91a1.16,1.16,0,0,1-1.95-.13,2.55,2.55,0,0,1,.19-2.28,1.18,1.18,0,0,1,2,.24A2.66,2.66,0,0,1,402.36,180.91Z" transform="translate(0 0)"/><path class="cls-14" d="M410.91,181.17a1.17,1.17,0,0,1-2-.13,2.58,2.58,0,0,1,.19-2.28,1.19,1.19,0,0,1,2,.23A2.72,2.72,0,0,1,410.91,181.17Z" transform="translate(0 0)"/><path id="STROKE_fcb536d8-00b4-44f3-90ea-53f8eb61c44a-2" data-name="STROKE fcb536d8-00b4-44f3-90ea-53f8eb61c44a" class="cls-41" d="M405.76,185.22l-.15.36c0,.12-.08.22-.11.3a1.76,1.76,0,0,0-.07.27,1.45,1.45,0,0,0,0,.28,1.49,1.49,0,0,0,0,.19,1.41,1.41,0,0,0,0,.18,1.64,1.64,0,0,0,0,.18c0,.05,0,.09.05.13a1.12,1.12,0,0,0,.08.17,1.4,1.4,0,0,0,.12.18l.1.13.15.13a1.79,1.79,0,0,0,.15.14l.49.35" transform="translate(0 0)"/><path class="cls-16" d="M414,195.48h0c-.51.18-1,.32-1.55.45a34.4,34.4,0,0,1-4.16.7,9.66,9.66,0,0,1-1.33.15c-.34,0-1.12-.13-1.11-.6,0-.22.21-.37.39-.43a5,5,0,0,1,1.21-.19,32.87,32.87,0,0,0,3.42-.54c.57-.12,1.14-.25,1.71-.4a6.55,6.55,0,0,1,1.58-.34.56.56,0,0,1,.61.5C414.68,195.18,414.28,195.37,414,195.48Z" transform="translate(0 0)"/><path class="cls-42" d="M429.9,208.33c-3.35,1.53-7.41,2.29-10.89.79a50.14,50.14,0,0,0,.12-5.74,21.89,21.89,0,0,0,2.91-.29,25.84,25.84,0,0,0,7.72-2.58A52.1,52.1,0,0,0,429.9,208.33Z" transform="translate(0 0)"/><path class="cls-43" d="M612,339.27c-2.47.75-5.09,1.3-7.57,2-4.61-17.52-23.73-26.84-36.19-38.19,4.42-6.76,7.6-15.27,8.88-25.9,2.52.11,5,.27,7.52.53C592.46,298.57,611.07,315.54,612,339.27Z" transform="translate(0 0)"/><path class="cls-25" d="M588.17,245.48q-.31-.42-.6-.84" transform="translate(0 0)"/><path class="cls-24" d="M650.35,221.6c-8.59,10.55-12.31,22.11-16.72,32.68-4-1.54-14.28-5.61-15.77-6,3.27-11.17,8.45-22.23,13.87-32.49C638,217.35,643.73,219.26,650.35,221.6Z" transform="translate(0 0)"/><path class="cls-44" d="M592.92,224.31h0a133.78,133.78,0,0,0-4.75,21.16h0c-1.81,11.8-2.72,23.85-3.53,32.2-2.49-.26-5-.42-7.52-.53-8.24-.36-16.56-.13-24.72-.73,0-10.05,1.27-19,2.3-29.05,3.53,3.75,8.34,6.68,12.53,9.15,1.26-1.63,1.86-2.15,3.1-3.95-9.28-7-10.24-18.06-2.46-27,5.14-5.89,7.75-7.45,14.35-11.39a5.15,5.15,0,0,0,3.65,0h0C589.27,216.47,591.33,220.16,592.92,224.31Z" transform="translate(0 0)"/><path class="cls-25" d="M554.7,247.38v0" transform="translate(0 0)"/><path class="cls-3" d="M577.12,277.16c-1.28,10.63-4.46,19.14-8.88,25.9-12,18.32-33,23.67-49.64,23,.24-3.11.37-5,.5-8.59,20.86.2,32-22.51,33.3-41C560.56,277,568.88,276.8,577.12,277.16Z" transform="translate(0 0)"/><path class="cls-20" d="M626.32,346.51c-7,1.34-13.77,2.46-20.71,3.35-.35-2.74-.61-5.9-1.18-8.61,2.48-.68,5.1-1.23,7.57-2C619.31,333.88,626.46,337.08,626.32,346.51Z" transform="translate(0 0)"/><path class="cls-20" d="M507.8,336.94c.73-7.1,1.53-13.42,2.21-20.59,2.74.39,6.32.95,9.09,1.1-.13,3.58-.26,5.48-.5,8.59C521.86,334.52,516.86,339.56,507.8,336.94Z" transform="translate(0 0)"/><path class="cls-11" d="M567.66,171.81a35.43,35.43,0,0,0,.3,16,15.55,15.55,0,0,0,14.48-3.07c-2.88-3.36.45-9.24,3.93-5.18,7.21-6.93,12.45-4.09,26-1.42l1.67.32c.7-17.57-19.57-30.64-35-22.39a26.33,26.33,0,0,0-7.09,6.47A24.55,24.55,0,0,0,567.66,171.81Z" transform="translate(0 0)"/><path class="cls-39" d="M586.37,179.53l-.2.18" transform="translate(0 0)"/><path class="cls-39" d="M582.59,184.59l-.15.12" transform="translate(0 0)"/><path class="cls-45" d="M554,198.65c2.71-10.35,2.66-22.24,13.65-26.84a24.55,24.55,0,0,1,4.31-9.3C549.72,149.55,550.59,185.2,554,198.65Z" transform="translate(0 0)"/><path class="cls-27" d="M612.38,178.11c-1.27-.26-2.47-.5-3.6-.75l-2.18-.48a79.32,79.32,0,0,0-8.23-1.55c-.41-.05-.83-.08-1.22-.1a12.8,12.8,0,0,0-6.23,1.06,14.2,14.2,0,0,0-1.27.67,18.8,18.8,0,0,0-3.28,2.58l-.24-.27a4.52,4.52,0,0,0-.46-.43l-.23-.18a3.11,3.11,0,0,0-.46-.26,2.07,2.07,0,0,0-1.92,0,.61.61,0,0,0-.22.13,4.09,4.09,0,0,0-1.4,4.13,4.5,4.5,0,0,0,1,2.07h0a14.7,14.7,0,0,1-4.09,2.54,15.43,15.43,0,0,1-7.61,1,16.41,16.41,0,0,1-2.75-.51,0,0,0,0,0,0,0,28,28,0,0,0,4.71,9.07,27.74,27.74,0,0,0,3,3.27,29.63,29.63,0,0,0,2.42,2,26.26,26.26,0,0,0,4.38,2.52,22,22,0,0,0,2.74,1,20.72,20.72,0,0,0,2.9.69,19.55,19.55,0,0,0,2,.25C603.54,207.61,612.69,190.89,612.38,178.11Zm-11.53,8.58a1.17,1.17,0,0,1-1.93-.39,2.74,2.74,0,0,1,.32-2.16,1.17,1.17,0,0,1,2,.3A2.56,2.56,0,0,1,600.85,186.69Zm8.32,1.95a1.17,1.17,0,0,1-1.92-.38,2.64,2.64,0,0,1,.31-2.17,1.19,1.19,0,0,1,2,.29A2.57,2.57,0,0,1,609.17,188.64Z" transform="translate(0 0)"/><path class="cls-14" d="M607.24,188.25a1.17,1.17,0,0,0,1.92.39,2.53,2.53,0,0,0,.4-2.25,1.18,1.18,0,0,0-2-.3A2.7,2.7,0,0,0,607.24,188.25Z" transform="translate(0 0)"/><path class="cls-14" d="M598.92,186.3a1.16,1.16,0,0,0,1.92.38,2.55,2.55,0,0,0,.4-2.25,1.18,1.18,0,0,0-2-.29A2.7,2.7,0,0,0,598.92,186.3Z" transform="translate(0 0)"/><path id="STROKE_fcb536d8-00b4-44f3-90ea-53f8eb61c44a-3" data-name="STROKE fcb536d8-00b4-44f3-90ea-53f8eb61c44a" class="cls-41" d="M602.85,191.54c0,.14,0,.27,0,.39s0,.23,0,.32v.28l0,.28a1.24,1.24,0,0,1,0,.19,1.2,1.2,0,0,1-.06.17l-.08.16a1,1,0,0,1-.08.11l-.12.15-.16.14-.13.09-.18.1-.18.09-.57.21" transform="translate(0 0)"/><path class="cls-46" d="M588.16,206.34a24.73,24.73,0,0,0-2.29,7.86,5.15,5.15,0,0,1-3.65,0c-2.53-.92-4.62-3.54-6.76-5.12h0a25.23,25.23,0,0,0,2.7-7,26.26,26.26,0,0,0,4.38,2.52,22,22,0,0,0,2.74,1A20.72,20.72,0,0,0,588.16,206.34Z" transform="translate(0 0)"/><path class="cls-25" d="M575.44,209.06l-.1.19" transform="translate(0 0)"/><path id="STROKE_60eb6250-dec1-418f-86c3-059851a1cfe3" data-name="STROKE 60eb6250-dec1-418f-86c3-059851a1cfe3" class="cls-16" d="M593.81,200.14a5.13,5.13,0,0,0,5.2,2.26,3.44,3.44,0,0,0,2-1.06.81.81,0,0,0,.17-.39c.1-.68-.82-.64-1.25-.73a9.75,9.75,0,0,1-1.21-.31,6.77,6.77,0,0,1-2.34-1.38c-.71-.65-1.25-1.45-2-2.07-.43-.36-1-.66-1.34,0a2.78,2.78,0,0,0-.06,1.46A5.16,5.16,0,0,0,593.81,200.14Z" transform="translate(0 0)"/><path class="cls-9" d="M569.8,252.57l-2.57,3.7.23.27a38,38,0,0,0,4.25,4.3c2.17,1.81,4.63,3,7,2.09.09,0,.19-.09.3-.14a1.05,1.05,0,0,0,.31-.18,2.1,2.1,0,0,0,.64-2.89v0a3,3,0,0,0-.41-.68,16.51,16.51,0,0,0-3.35-2.79c-1.19-.79-2.44-1.48-3.68-2.15l-.44-.26h0l-1-.56c-.31-.16-.61-.34-.91-.51Z" transform="translate(0 0)"/><path class="cls-9" d="M615.2,249.64l.77,4.45c.12,0,.23,0,.36,0a36.42,36.42,0,0,0,6,.07c2.82-.24,5.42-1.11,6.45-3.43,0-.09.07-.2.12-.31a1.15,1.15,0,0,0,.09-.34,2.1,2.1,0,0,0-1.58-2.51h0a3.14,3.14,0,0,0-.76-.19,16.62,16.62,0,0,0-4.35.36c-1.4.28-2.78.66-4.13,1.06l-.49.13v0l-1.11.3-1,.28Z" transform="translate(0 0)"/><path class="cls-32" d="M567.87,225.58c-7.78,8.94-6.82,20,2.46,27-1.24,1.8-1.84,2.32-3.1,3.95-4.19-2.47-9-5.4-12.53-9.15a17.65,17.65,0,0,1-4.86-8.95,13.53,13.53,0,0,1,.33-5.9c3-11.29,12.36-27.44,25.27-23.47h0c2.14,1.58,4.23,4.2,6.76,5.12C575.62,218.13,573,219.69,567.87,225.58Z" transform="translate(0 0)"/><path class="cls-47" d="M616.35,254.74c-10.27,4.94-21.79-.59-28.18-9.25h0a133.78,133.78,0,0,1,4.75-21.16c4.69,12.31,5.13,28.67,22.89,24.45C616,251.27,616.21,252,616.35,254.74Z" transform="translate(0 0)"/><path class="cls-48" d="M713.18,187.34l-4.48.52c0-.1-.07-.22-.12-.33a37.56,37.56,0,0,1-1.79-5.78c-.56-2.77-.47-5.5,1.46-7.16.08-.06.18-.12.27-.2a1.59,1.59,0,0,1,.3-.18,2.11,2.11,0,0,1,2.86.8v0a3,3,0,0,1,.4.67A16.74,16.74,0,0,1,713,180c.13,1.42.15,2.85.15,4.26l0,.51h0c0,.37,0,.76,0,1.14s0,.7,0,1C713.17,187.07,713.18,187.21,713.18,187.34Z" transform="translate(0 0)"/><path class="cls-49" d="M732.7,359.17c-2.68,0-4.31-.15-6.92-.24-2.51-5.84,3.46-10.61,10-9.95a9.43,9.43,0,0,1,1.38.22C733.91,350.33,732,353.27,732.7,359.17Z" transform="translate(0 0)"/><path class="cls-50" d="M745.73,349.22c-3.17-.69-6.23-.85-8.61,0a9.43,9.43,0,0,0-1.38-.22c-3.69-23.46-5.93-46.79-8.81-70.53,2.51.1,5.09.22,7.71.31C737.49,299.15,740.66,329.53,745.73,349.22Z" transform="translate(0 0)"/><path class="cls-20" d="M752.74,349.46c-.16,3.43-.32,6.46-.44,9.79-7,0-13.24,0-19.6-.08-.74-5.9,1.21-8.84,4.42-10,2.38-.84,5.44-.68,8.61,0C748.25,349.33,750,349.35,752.74,349.46Z" transform="translate(0 0)"/><path class="cls-3" d="M754.89,278.67c-.52,24.3-.79,51-2.15,70.8-2.76-.11-4.49-.13-7-.25-5.07-19.69-8.24-50.07-11.09-70.45A197.9,197.9,0,0,0,754.89,278.67Z" transform="translate(0 0)"/><path class="cls-51" d="M756.36,247.57c-1.31,11.59-1.34,25.06-1.47,31.1a197.9,197.9,0,0,1-20.25.1c-2.62-.09-5.2-.21-7.71-.31-.41-6.58-1.54-38.17-2.18-46.41-.48-6.15-3.61-10.06-7.09-14.59-6.54-8.53-10.27-19.19-9.44-30l4.45-.49a33.12,33.12,0,0,0,2.86,12.34,0,0,0,0,0,0,0c4.68,14.61,14,16,20.1,15.77,3.4,1.8,7.32,1.23,10.7-.34a22.12,22.12,0,0,1,6.41,1.61c.65,8.16.76,11.39-.09,16.84-1.71,10.86-8.91,19.59-20.4,19.2l-.64,5.43C742.11,260,751,254.94,756.36,247.57Z" transform="translate(0 0)"/><path id="STROKE_b2be3853-3ad2-4808-a821-b333c5de313c" data-name="STROKE b2be3853-3ad2-4808-a821-b333c5de313c" class="cls-52" d="M685.37,151c1.25-3.95,5.14-7.52,9.53-6.8,5.29.86,6,7,4.06,11.1-1.7,3.55-4.39,7.11-2.69,11.2" transform="translate(0 0)"/><path class="cls-11" d="M758.66,182.19a35.4,35.4,0,0,1-4.41,15.35,15.5,15.5,0,0,1-13.19-6.7c3.64-2.5,1.94-9-2.47-6-5.18-8.56-11-7.17-24.76-8.08l-1.69-.12C716,159.47,739,152.07,751.71,164a26.31,26.31,0,0,1,5.18,8.07A24.39,24.39,0,0,1,758.66,182.19Z" transform="translate(0 0)"/><path class="cls-39" d="M738.74,185.06a2.3,2.3,0,0,0-.15-.23" transform="translate(0 0)"/><path class="cls-39" d="M741.06,190.84a.79.79,0,0,1-.12-.15" transform="translate(0 0)"/><path class="cls-53" d="M764.93,211.64c.05-10.7,3.16-22.18-6.27-29.45a24.39,24.39,0,0,0-1.77-10.1C781.73,165.3,771.7,199.53,764.93,211.64Z" transform="translate(0 0)"/><path class="cls-27" d="M751.45,197.32a16,16,0,0,1-5.52-1.92,14.71,14.71,0,0,1-1.57-1,14.55,14.55,0,0,1-3.3-3.51h0a4.62,4.62,0,0,0,1.51-1.74,4.1,4.1,0,0,0-.29-4.35.77.77,0,0,0-.18-.18,2.09,2.09,0,0,0-1.86-.48,2.8,2.8,0,0,0-.51.14l-.27.11a4.41,4.41,0,0,0-.56.3l-.3.19a19,19,0,0,0-2.5-3.33,13.67,13.67,0,0,0-1.06-1,12.77,12.77,0,0,0-5.74-2.63c-.39-.08-.8-.16-1.21-.22a80.15,80.15,0,0,0-8.35-.62l-2.23-.1c-1.16,0-2.38-.12-3.67-.2A32,32,0,0,0,712.67,187a33.12,33.12,0,0,0,2.86,12.34,0,0,0,0,0,0,0c2.5,5.38,6.62,9.55,12.4,10.63a22,22,0,0,0,5,.36,19.84,19.84,0,0,0,2.17-.18l.74-.11a25.84,25.84,0,0,0,7.72-2.58c.39-.21.78-.42,1.17-.65a27.28,27.28,0,0,0,2.6-1.73,27.67,27.67,0,0,0,6.89-7.55,0,0,0,0,0,0,0A17.13,17.13,0,0,1,751.45,197.32Zm-35.28-9.44a1.17,1.17,0,0,1-1.95-.13,2.55,2.55,0,0,1,.19-2.28,1.19,1.19,0,0,1,2,.23A2.68,2.68,0,0,1,716.17,187.88Zm8.55.25a1.17,1.17,0,0,1-2-.12,2.58,2.58,0,0,1,.19-2.28,1.18,1.18,0,0,1,2,.23A2.7,2.7,0,0,1,724.72,188.13Z" transform="translate(0 0)"/><path class="cls-14" d="M716.18,187.88a1.17,1.17,0,0,1-2-.13,2.58,2.58,0,0,1,.19-2.28,1.19,1.19,0,0,1,2,.23A2.72,2.72,0,0,1,716.18,187.88Z" transform="translate(0 0)"/><path class="cls-14" d="M724.72,188.14a1.17,1.17,0,0,1-2-.13,2.55,2.55,0,0,1,.19-2.28,1.19,1.19,0,0,1,2,.23A2.68,2.68,0,0,1,724.72,188.14Z" transform="translate(0 0)"/><path id="STROKE_fcb536d8-00b4-44f3-90ea-53f8eb61c44a-4" data-name="STROKE fcb536d8-00b4-44f3-90ea-53f8eb61c44a" class="cls-41" d="M719.58,192.19a2.75,2.75,0,0,0-.15.36,2.34,2.34,0,0,0-.11.3c0,.08-.05.17-.08.27s0,.19,0,.28a1.49,1.49,0,0,0,0,.19s0,.11,0,.18,0,.13,0,.18l0,.13.09.17.11.18.11.12a.92.92,0,0,0,.14.14,1.53,1.53,0,0,0,.16.13s.21.16.49.36" transform="translate(0 0)"/><path class="cls-16" d="M727.77,202.45h0c-.5.18-1,.32-1.55.45a34.07,34.07,0,0,1-4.16.7,9.7,9.7,0,0,1-1.32.15c-.35,0-1.13-.13-1.12-.61a.52.52,0,0,1,.4-.42,4.85,4.85,0,0,1,1.21-.19c1.14-.12,2.29-.31,3.42-.54.57-.12,1.14-.25,1.7-.4a6.66,6.66,0,0,1,1.58-.34c.29,0,.62.18.61.5S728.09,202.33,727.77,202.45Z" transform="translate(0 0)"/><path class="cls-54" d="M746.34,214.79c-3.38,1.57-7.3,2.14-10.7.34a14.43,14.43,0,0,0-.53-5l.74-.11a25.84,25.84,0,0,0,7.72-2.58c.39-.21.78-.42,1.17-.65A73.71,73.71,0,0,0,746.34,214.79Z" transform="translate(0 0)"/><path class="cls-24" d="M732.67,254.12c-6.87.52-13.06,1.38-19.88,0-3-8.63-4.58-17.75-6.29-26.72,2.17.45,18.37,1.21,20.07,1.1A104.79,104.79,0,0,0,732.67,254.12Z" transform="translate(0 0)"/><path class="cls-9" d="M732.86,252.82l-.6,4.47-.36,0a37,37,0,0,1-6,.31c-2.82-.13-5.45-.89-6.58-3.17,0-.1-.08-.21-.13-.31a1.18,1.18,0,0,1-.1-.34,2.1,2.1,0,0,1,1.48-2.57h0a3.17,3.17,0,0,1,.76-.22,16.7,16.7,0,0,1,4.36.19c1.41.22,2.8.56,4.17.9l.5.11v0l1.11.26c.34.09.69.16,1,.23Z" transform="translate(0 0)"/><path class="cls-32" d="M756.36,247.57c-5.4,7.37-14.25,12.46-24.74,10.3l.64-5.43c11.49.39,18.69-8.34,20.4-19.2.85-5.45.74-8.68.09-16.84C764.76,221.58,764.15,236.94,756.36,247.57Z" transform="translate(0 0)"/><circle class="cls-55" cx="697.98" cy="171.53" r="1"/><path class="cls-56" d="M928,267.67a17.74,17.74,0,0,1-3.85,1,3.69,3.69,0,0,1-3.66-1.3,1.56,1.56,0,0,1-.22-.45,1.31,1.31,0,0,1,.9-1.6h0l.41-.12a12.32,12.32,0,0,1,3.44-.24l2,.09h.55l.22,1.62Z" transform="translate(0 0)"/><path class="cls-24" d="M928,257.86c-2.51,4.23-4.54,8.21-8.16,11.62-6.28-1.78-12.27-4.58-18.22-7.25,1.15-1.09,8.23-10.26,8.86-11.3A74.74,74.74,0,0,0,928,257.86Z" transform="translate(0 0)"/><path class="cls-12" d="M906.74,242.85c.77,2.66,2.6,5.21,5.88,3.25,0,0,1.47,1.19,2.61,2.2,1.37,1.22,2.41.17,1.1-1a44.34,44.34,0,0,1-6.38-6.77Z" transform="translate(0 0)"/><path class="cls-12" d="M904.94,257.9a12.67,12.67,0,0,1-6.3-4.68l1.42-1.63,1.05-1.21a15.79,15.79,0,0,0,5.1,3.61c.56.29,1.18.6,1.84,1a1.85,1.85,0,0,1,1,1.18C909.31,257.41,907.37,258.68,904.94,257.9Z" transform="translate(0 0)"/><path class="cls-57" d="M898.13,204.59a117.8,117.8,0,0,1-3.3,21.71v0c-1.29,5.54-2.62,10.33-3.36,13.31-9.4-12.06-14.64-27.82-12-42.72a19.62,19.62,0,0,1,6.61-12c2.15,2.06,4.1,4.49,6.55,1.33C897.11,189.69,898.4,196.66,898.13,204.59Z" transform="translate(0 0)"/><path class="cls-58" d="M889.36,247.7c-1,5.06-2,9.37-3.08,14.38-2.83-.44-5.74-.92-8.69-1.41-7.24-1.2-14.75-2.49-22.2-3.6,1-13.14,2.37-38.47,9.28-55.84C860.09,219.51,874.53,236.39,889.36,247.7Z" transform="translate(0 0)"/><path class="cls-17" d="M901.78,250.05l-3.4,3.87c-2.91-1.82-6-3.9-9-6.22-14.83-11.31-29.27-28.19-24.69-46.47h0v0c4-10,9.78-17.33,18.42-18.22l.25.06a8.08,8.08,0,0,1,2.72,1.93,19.62,19.62,0,0,0-6.61,12c-2.64,14.9,2.6,30.66,12,42.72A60.84,60.84,0,0,0,901.78,250.05Z" transform="translate(0 0)"/><path class="cls-59" d="M910.42,240.78l-3.75,2.6c-4.27-3.92-9.48-10.71-11.85-17v0a117.8,117.8,0,0,0,3.3-21.71C899.45,217.47,903.06,229.69,910.42,240.78Z" transform="translate(0 0)"/><path class="cls-19" d="M893.11,347.61h-6.87c-4.55-9-9.56-18.58-14.23-28.31-3.25-6.82-6.34-13.72-9-20.59-5.47-14.4-8.91-28.65-7.67-41.64,7.45,1.11,15,2.4,22.2,3.6-.42,4.34-.55,7.6,0,17,.35,5.95.89,11.94,1.68,17.93h0C881.59,313.41,886,331.19,893.11,347.61Z" transform="translate(0 0)"/><path class="cls-60" d="M886.28,262.08c-1.87,10.32-4.15,22.13-7,33.48-.79-6-1.33-12-1.68-17.93-.55-9.36-.42-12.62,0-17C880.54,261.16,883.45,261.64,886.28,262.08Z" transform="translate(0 0)"/><path class="cls-61" d="M879.24,295.7l0-.13h0" transform="translate(0 0)"/><path class="cls-62" d="M872,319.3a138.29,138.29,0,0,1-12.47,28.31h-6.87c5.29-16.2,9.48-31.83,10.39-48.9C865.67,305.58,868.76,312.48,872,319.3Z" transform="translate(0 0)"/><path class="cls-11" d="M915.46,153.79c-.63,2.17-2.54,3.28-4.72,3.62a10.44,10.44,0,0,1-6.64-1.21c-6.5-4-8.79-4.87-10.38,3.71-1.8-1.6-3.25.19-3.11,2.28a5.08,5.08,0,0,0,1.38,3.42,4.82,4.82,0,0,1-4.24,1.27c-.09-5.31,1.08-17.5,6-20.34C901.86,142.91,908.63,151,915.46,153.79Z" transform="translate(0 0)"/><path class="cls-12" d="M904.1,156.2c-6.5-4-8.79-4.87-10.38,3.71-1.8-1.6-3.25.19-3.11,2.28a5.08,5.08,0,0,0,1.38,3.42,4.82,4.82,0,0,1-4.24,1.27,20.71,20.71,0,0,1-.22,4.52c2.8,4.24,5.48,6.15,8,6.44,7.07.85,12.61-11.39,15.24-20.43A10.44,10.44,0,0,1,904.1,156.2Zm-5,5.8c1-.24,1.1.65,1,1.2a2.24,2.24,0,0,1-.84,1.44c-.81.53-1.33-.29-1.23-1A2.06,2.06,0,0,1,899.1,162Zm.53,12.48a3.6,3.6,0,0,1-4.12-2.82c0-.92.51-.78.62-.3s1.52,2.72,3.52,2.71C900.77,174.08,899.93,174.42,899.63,174.48Zm6.88-8.61a2.22,2.22,0,0,1-.84,1.44c-.8.53-1.33-.29-1.21-1a2,2,0,0,1,1.06-1.67C906.51,164.43,906.62,165.32,906.51,165.87Z" transform="translate(0 0)"/><path class="cls-63" d="M895.5,177.84a27.82,27.82,0,0,0-2.88,8.44c-2.45,3.16-4.4.73-6.55-1.33a8.08,8.08,0,0,0-2.72-1.93l-.25-.06a35.54,35.54,0,0,0,4.42-11.56C890.33,175.64,893,177.55,895.5,177.84Z" transform="translate(0 0)"/><path class="cls-14" d="M900.09,163.2a2.24,2.24,0,0,1-.84,1.44c-.81.53-1.33-.29-1.23-1A2.06,2.06,0,0,1,899.1,162C900.08,161.76,900.2,162.65,900.09,163.2Z" transform="translate(0 0)"/><path class="cls-14" d="M906.51,165.87a2.22,2.22,0,0,1-.84,1.44c-.8.53-1.33-.29-1.21-1a2,2,0,0,1,1.06-1.67C906.51,164.43,906.62,165.32,906.51,165.87Z" transform="translate(0 0)"/><path id="STROKE_7d524fa2-6789-4ca9-ad56-6aa17e8cc972-2" data-name="STROKE 7d524fa2-6789-4ca9-ad56-6aa17e8cc972" class="cls-64" d="M902.15,168.34c-.35,1.11-1.19,3.73-2.52,2" transform="translate(0 0)"/><path class="cls-16" d="M899.63,174.48a3.6,3.6,0,0,1-4.12-2.82c0-.92.51-.78.62-.3s1.52,2.72,3.52,2.71C900.77,174.08,899.93,174.42,899.63,174.48Z" transform="translate(0 0)"/><path class="cls-20" d="M878.52,357.7l-5.3.05h-.12c-5.45,0-10.9-.05-16.35,0h-.28c-1.47,0-2.94-.06-4.41-.1.12-3.37.88-6.64.61-10h6.87C864.47,353.41,874.63,350.59,878.52,357.7Z" transform="translate(0 0)"/><path class="cls-20" d="M912.1,357.7l-5.31.05h-.11c-5.46,0-10.9-.05-16.35,0H890c-1.46,0-2.94-.06-4.4-.1.11-3.37.88-6.64.6-10h6.87C898.05,353.41,908.21,350.59,912.1,357.7Z" transform="translate(0 0)"/><path class="cls-65" d="M946.32,328.73c-.44,5.91-1.37,13.68-1.89,18.21a6.09,6.09,0,0,0-3.08.64h-2.22c-.65-18.11-2-36.34-2.48-54.46,2,.06,4,.09,6,.11,0,0,.16,4.2.6,8.75S945.1,319.8,946.32,328.73Z" transform="translate(0 0)"/><path class="cls-3" d="M958.15,293.24h0c-.44,17.91-.67,36.52-2.73,54.33-2.1.05-4.06,0-6.12.13-1.13-6.22-2.12-12.58-3-19-1.22-8.93-2.59-22.2-3-26.75s-.6-8.75-.6-8.75C947.77,293.28,953.1,293.24,958.15,293.24Z" transform="translate(0 0)"/><path class="cls-9" d="M928.54,267.08l-1,2.46-.19,0a18.63,18.63,0,0,1-3.19-.86c-1.45-.56-2.7-1.45-2.93-2.95,0-.06,0-.13,0-.2a.74.74,0,0,1,0-.21,1.2,1.2,0,0,1,1.17-1.22h0a1.55,1.55,0,0,1,.43,0,8.58,8.58,0,0,1,2.24.86c.7.37,1.37.8,2,1.23l.24.15h0l.54.34.49.31Z" transform="translate(0 0)"/><path class="cls-16" d="M941.9,238.5c-.56,1.52-2.36,2.48-4.52,2.09-.72-.13-.82-.54-.12-.48a3,3,0,0,0,.85-.05,5.66,5.66,0,0,0,2-.85,4.25,4.25,0,0,0,.81-.66,1.07,1.07,0,0,1,.79-.43C941.92,238.14,942,238.31,941.9,238.5Z" transform="translate(0 0)"/><path class="cls-11" d="M958.64,227.58a20.67,20.67,0,0,1-2.3,9,9.06,9.06,0,0,1-7.8-3.67c2.08-1.52,1-5.3-1.54-3.46-3.17-4.89-6.52-4-14.56-4.27l-1,0c1.94-10.06,15.18-14.77,22.82-8a15.32,15.32,0,0,1,3.16,4.61A14.3,14.3,0,0,1,958.64,227.58Z" transform="translate(0 0)"/><path class="cls-25" d="M947.09,229.6l-.09-.13" transform="translate(0 0)"/><path class="cls-25" d="M948.54,232.93l-.07-.09" transform="translate(0 0)"/><path class="cls-66" d="M962.81,244.62c-.16-6.23,1.45-13-4.17-17a14.3,14.3,0,0,0-1.21-5.85C971.78,217.34,966.54,237.45,962.81,244.62Z" transform="translate(0 0)"/><path class="cls-27" d="M948.54,232.93c2.08-1.52,1-5.3-1.54-3.46-3.17-4.89-6.52-4-14.56-4.27-1.88,7.21,1.09,17.91,8.8,19.11a13.23,13.23,0,0,0,4.61-.1,15.16,15.16,0,0,0,6.6-3.09,16.15,16.15,0,0,0,3.89-4.52A9.06,9.06,0,0,1,948.54,232.93ZM934,231.64a.68.68,0,0,1-1.14,0,1.48,1.48,0,0,1,.07-1.33.69.69,0,0,1,1.18.1A1.56,1.56,0,0,1,934,231.64Zm3.91-1.37a.69.69,0,0,1,1.18.1,1.56,1.56,0,0,1-.11,1.27.68.68,0,0,1-1.14,0A1.48,1.48,0,0,1,937.91,230.27Zm4,8.23c-.56,1.52-2.36,2.48-4.52,2.09-.72-.13-.82-.54-.12-.48a3,3,0,0,0,.85-.05,5.66,5.66,0,0,0,2-.85,4.25,4.25,0,0,0,.81-.66,1.07,1.07,0,0,1,.79-.43C941.92,238.14,942,238.31,941.9,238.5Z" transform="translate(0 0)"/><path class="cls-14" d="M934,231.64a.68.68,0,0,1-1.14,0,1.48,1.48,0,0,1,.07-1.33.69.69,0,0,1,1.18.1A1.56,1.56,0,0,1,934,231.64Z" transform="translate(0 0)"/><path class="cls-14" d="M939,231.64a.68.68,0,0,1-1.14,0,1.48,1.48,0,0,1,.07-1.33.69.69,0,0,1,1.18.1A1.56,1.56,0,0,1,939,231.64Z" transform="translate(0 0)"/><path id="STROKE_fcb536d8-00b4-44f3-90ea-53f8eb61c44a-5" data-name="STROKE fcb536d8-00b4-44f3-90ea-53f8eb61c44a" class="cls-15" d="M936.06,234.09a1.8,1.8,0,0,0-.08.21.94.94,0,0,0-.06.18.75.75,0,0,0,0,.16,1,1,0,0,0,0,.16v.11a.52.52,0,0,0,0,.11.3.3,0,0,0,0,.1l0,.07a.31.31,0,0,0,.05.1.29.29,0,0,0,.07.1l.06.08.09.08.09.07.29.2" transform="translate(0 0)"/><path class="cls-67" d="M952.69,246.79a9,9,0,0,1-6.91,1.29,9.65,9.65,0,0,0,.07-3.87,15.16,15.16,0,0,0,6.6-3.09C952.46,243,952.55,245,952.69,246.79Z" transform="translate(0 0)"/><path class="cls-68" d="M959.84,256.21c-1.45,12-1.57,24.71-1.69,36.83v.2c-7.1,0-14.75.07-21.5-.12-.37-6.06.07-13.34-.09-19.53a13.19,13.19,0,0,0,8.67-.9C950.65,270.28,958.39,262.7,959.84,256.21Z" transform="translate(0 0)"/><path class="cls-69" d="M937.06,255.61c0,2.33-.26,7.11-.34,9-1.49,1.13-3.84,2.7-5.7,2.9a15.55,15.55,0,0,1-2.46-1.09c0,.09-.09.25-.18.48l0,.07-.49-.31-.22-1.62h-.23C932.76,263.12,935.12,259.21,937.06,255.61Z" transform="translate(0 0)"/><path class="cls-70" d="M953.38,247a76.47,76.47,0,0,1-3.51,10.53c-2.64,6-7.56,10.31-13.32,10.75.06-1.13.12-2.38.17-3.66.08-1.88.3-6.66.34-9h0c2.15-4,3.78-7.56,8.36-7.57l.36.05a9,9,0,0,0,6.91-1.29Z" transform="translate(0 0)"/><path class="cls-32" d="M959.84,256.21c-1.45,6.49-9.19,14.07-14.61,16.48a13.19,13.19,0,0,1-8.67.9,40.54,40.54,0,0,1-9.43-3.63c.09-.2.15-.33.18-.38l0-.08s0,0,0,0l.08-.21.16-.38a3.6,3.6,0,0,1,.14-.35l.15-.39.2-.51c.06-.16.15-.37.26-.66l0-.07c.09-.23.14-.39.18-.48A15.55,15.55,0,0,0,931,267.5a13.66,13.66,0,0,0,5.53.76c5.76-.44,10.68-4.72,13.32-10.75A76.47,76.47,0,0,0,953.38,247C959.24,248.67,960.73,252.23,959.84,256.21Z" transform="translate(0 0)"/><path class="cls-20" d="M955.85,354.89c-5.54.22-11.06.35-16.63.12-.39-4.16.36-6.43,2.13-7.43a6.09,6.09,0,0,1,3.08-.64,22.54,22.54,0,0,1,4.87.77c2.06-.12,4-.08,6.12-.13C955.44,350.18,955.72,352.3,955.85,354.89Z" transform="translate(0 0)"/><path class="cls-71" d="M939.22,355c-6.4-.12-5-.08-10.27-.24-.74-8.16,2.82-10.1,10.18-7.19h2.22C939.58,348.58,938.83,350.85,939.22,355Z" transform="translate(0 0)"/><path class="cls-72" d="M1080.43,219.33a24.94,24.94,0,0,0-.6-12.13c-2.76-8.69-11.46-8.7-13.73.73a25.22,25.22,0,0,0,.13,11.63c-14.3-6.5-15.74-26.76-5.7-35.69a17.54,17.54,0,0,1,12.28-4.31,16.13,16.13,0,0,1,10.47,4h0C1092.92,192,1093.6,211.16,1080.43,219.33Z" transform="translate(0 0)"/><path class="cls-20" d="M1067.18,349.39c-2.55-1-5.91-1.09-8,.09.17-1.76.36-3.51.52-5.26h7C1066.83,346,1067,347.68,1067.18,349.39Z" transform="translate(0 0)"/><path class="cls-73" d="M1089.83,269.9a727.5,727.5,0,0,1-3.77,74.32h-7c-.61-17.68-3.29-36-5.94-54.88-2.38,18-4.89,36.79-6.43,54.88h-7c-1.33-22.84-3.18-46.66-3.18-74.32Z" transform="translate(0 0)"/><path class="cls-74" d="M1067.27,358a54.1,54.1,0,0,1-8.55,0,77.85,77.85,0,0,1,.43-8.51c2.12-1.18,5.48-1.12,8-.09A43.71,43.71,0,0,1,1067.27,358Z" transform="translate(0 0)"/><path class="cls-20" d="M1086.56,349.39c-2.55-1-5.91-1.09-8,.09.17-1.76.36-3.51.52-5.26h7C1086.21,346,1086.4,347.68,1086.56,349.39Z" transform="translate(0 0)"/><path class="cls-75" d="M1086.65,358a54.1,54.1,0,0,1-8.55,0,77.85,77.85,0,0,1,.43-8.51c2.12-1.18,5.48-1.12,8-.09A43.71,43.71,0,0,1,1086.65,358Z" transform="translate(0 0)"/><path class="cls-11" d="M1080.43,219.33c-1.43,8.34-5.78,16.82-7.17,27.25-.65-10.45-5.21-18.74-7-27a25.22,25.22,0,0,1-.13-11.63c2.27-9.43,11-9.42,13.73-.73A24.94,24.94,0,0,1,1080.43,219.33Z" transform="translate(0 0)"/><rect class="cls-24" x="1054.28" y="145.19" width="37.04" height="18.02"/><rect class="cls-76" x="1057.11" y="147.9" width="7.82" height="7.82"/><rect class="cls-76" x="1057.11" y="158.23" width="17.53" height="3.06"/><path class="cls-9" d="M1083.51,165l4.51.18c0-.11,0-.22.09-.34a36.55,36.55,0,0,0,1.35-5.89c.36-2.81.06-5.53-2-7l-.28-.19a1.54,1.54,0,0,0-.32-.15,2.08,2.08,0,0,0-2.78,1h0a3.38,3.38,0,0,0-.36.71,17.27,17.27,0,0,0-.56,4.33c0,1.43.07,2.85.16,4.26l0,.51h0c0,.38,0,.77.06,1.15s0,.7.06,1C1083.5,164.68,1083.5,164.83,1083.51,165Z" transform="translate(0 0)"/><path class="cls-9" d="M1061.81,165l-4.51.18c0-.11,0-.22-.09-.34a36.55,36.55,0,0,1-1.35-5.89c-.36-2.81-.06-5.53,2-7l.28-.19a1.54,1.54,0,0,1,.32-.15,2.08,2.08,0,0,1,2.78,1h0a3.38,3.38,0,0,1,.36.71,17.27,17.27,0,0,1,.56,4.33c0,1.43-.07,2.85-.16,4.26l0,.51h0c0,.38,0,.77-.07,1.15s0,.7-.06,1C1061.82,164.68,1061.82,164.83,1061.81,165Z" transform="translate(0 0)"/><path class="cls-77" d="M1089.83,269.9h-33.34c1-46.23-10.29-69.89,0-105.16h6.23a119.18,119.18,0,0,0-2.19,19.13c-10,8.93-8.6,29.19,5.7,35.69,1.82,8.28,6.38,16.57,7,27,1.39-10.43,5.74-18.91,7.17-27.25,13.17-8.17,12.49-27.38,2.85-35.75h0a184.93,184.93,0,0,0-.58-18.83h6.56C1096.68,200.65,1089.37,226.34,1089.83,269.9Z" transform="translate(0 0)"/><path class="cls-9" d="M1254.21,172.7l-4.31-1.35c0-.11,0-.22,0-.35a36.7,36.7,0,0,1,.72-6c.6-2.77,1.8-5.23,4.24-5.95l.32-.08a1.11,1.11,0,0,1,.35,0,2.1,2.1,0,0,1,2.29,1.89v0a3.33,3.33,0,0,1,.09.78,16.69,16.69,0,0,1-.92,4.27c-.46,1.35-1,2.66-1.59,4l-.2.47h0c-.15.36-.31.71-.45,1.06s-.27.64-.4,1C1254.31,172.44,1254.26,172.58,1254.21,172.7Z" transform="translate(0 0)"/><path class="cls-9" d="M1184.48,173.93l-4.18,1.68c-.07-.09-.13-.19-.21-.29a37.09,37.09,0,0,1-3.24-5.1c-1.28-2.52-1.91-5.19-.48-7.29l.21-.26a1.21,1.21,0,0,1,.24-.26,2.11,2.11,0,0,1,3,0h0a3.69,3.69,0,0,1,.57.55,16.79,16.79,0,0,1,2,3.89c.5,1.34.89,2.71,1.27,4.07l.15.49h0c.12.36.22.74.33,1.1s.19.67.29,1C1184.4,173.67,1184.45,173.81,1184.48,173.93Z" transform="translate(0 0)"/><path class="cls-20" d="M1223.39,352.35c5.18-5,10-9.78,14.76-14.91-2-1.88-4.44-3.93-6.32-6-2,1.63-4,3.21-6,5C1217.19,339.3,1215.64,347,1223.39,352.35Z" transform="translate(0 0)"/><path class="cls-20" d="M1288.52,310.77c-2.38-6.75-4.81-13.14-7.54-19.58-2.54,1.08-5.41,2.45-8,3.32.66,2.49,1.25,5,2.1,7.54C1274.08,311.08,1280.44,315.64,1288.52,310.77Z" transform="translate(0 0)"/><path class="cls-78" d="M1223,200.53a42.71,42.71,0,0,0-1.24,8.25,14.19,14.19,0,0,1-11.75-.66,26,26,0,0,0,2.14-6.83,25.85,25.85,0,0,0,3.85.26,29.9,29.9,0,0,0,3.11-.21A25.64,25.64,0,0,0,1223,200.53Z" transform="translate(0 0)"/><path class="cls-25" d="M1223.18,199.82l-.15.71" transform="translate(0 0)"/><path class="cls-79" d="M1231.83,331.47l-6,5c-19.28-15.47-32.23-40.33-30.56-65.43l9.72,0c.06,2.8.64,8.45,6.09,17a45.63,45.63,0,0,0,7.25,8.86C1220.2,308.42,1224.59,322,1231.83,331.47Z" transform="translate(0 0)"/><path class="cls-80" d="M1233.41,227.24c-3,15.21-4.5,28.28-4,43.72L1205,271l-9.72,0c4-62.58-3.17-59.28-15.71-95.36l5.51-2.17c5.16,12.45,11.69,32.86,25,34.6a14.19,14.19,0,0,0,11.75.66c10.69-.84,22.59-23.75,27.66-37.75l5.32,1.68C1249.08,194.07,1236.28,212.86,1233.41,227.24Z" transform="translate(0 0)"/><path class="cls-11" d="M1242,182.8a35.41,35.41,0,0,1-9.44,12.89,15.51,15.51,0,0,1-10.07-10.84c4.28-1.09,4.94-7.82-.24-6.49-1.92-9.82-7.83-10.52-20.45-16.12-.51-.22-1-.45-1.55-.7,9.52-14.78,33.63-13.81,41.48,1.8a26.3,26.3,0,0,1,2.09,9.37A24.56,24.56,0,0,1,1242,182.8Z" transform="translate(0 0)"/><path class="cls-39" d="M1222.27,178.36a1.67,1.67,0,0,1,.06.26" transform="translate(0 0)"/><path class="cls-39" d="M1222.46,184.66a.59.59,0,0,0,0,.19" transform="translate(0 0)"/><path class="cls-81" d="M1237.75,212.6c3.74-10,10.61-19.72,4.27-29.8a24.56,24.56,0,0,0,1.82-10.09C1269.5,174.9,1248.28,203.57,1237.75,212.6Z" transform="translate(0 0)"/><path class="cls-27" d="M1230,194.51a15.92,15.92,0,0,1-4.52-3.7,15.16,15.16,0,0,1-1.11-1.52,14.71,14.71,0,0,1-1.89-4.43v0a4.43,4.43,0,0,0,2-1.11,4.08,4.08,0,0,0,1.23-4.18.53.53,0,0,0-.11-.24,2.05,2.05,0,0,0-1.58-1.08,3.92,3.92,0,0,0-.52-.06l-.29,0a3.68,3.68,0,0,0-.63.09,2.21,2.21,0,0,0-.35.08,19.14,19.14,0,0,0-1.2-4c-.2-.46-.43-.87-.65-1.28a12.93,12.93,0,0,0-4.49-4.45c-.33-.2-.69-.42-1.06-.61a76.93,76.93,0,0,0-7.62-3.47l-2.06-.86c-1.07-.45-2.19-.94-3.38-1.46-7.6,10.28-9.73,29.22,1.79,36.07.58.35,1.18.67,1.79,1a21.29,21.29,0,0,0,2.77,1.1,21.92,21.92,0,0,0,2.84.73l1.18.2a25.85,25.85,0,0,0,3.85.26,29.9,29.9,0,0,0,3.11-.21,25.64,25.64,0,0,0,3.89-.81l.47-.13a27.92,27.92,0,0,0,9.07-4.71h0A16.37,16.37,0,0,1,1230,194.51Zm-29.86-21a1.18,1.18,0,0,1-1.79-.8,2.56,2.56,0,0,1,1-2.07,1.18,1.18,0,0,1,1.81.91A2.66,2.66,0,0,1,1200.17,173.49Zm7.95,3.18a1.18,1.18,0,0,1-1.81-.79,2.58,2.58,0,0,1,1-2.07,1.18,1.18,0,0,1,1.82.91A2.76,2.76,0,0,1,1208.12,176.67Z" transform="translate(0 0)"/><path class="cls-14" d="M1200.18,173.49a1.16,1.16,0,0,1-1.79-.79,2.56,2.56,0,0,1,1-2.08,1.19,1.19,0,0,1,1.82.92A2.7,2.7,0,0,1,1200.18,173.49Z" transform="translate(0 0)"/><path class="cls-14" d="M1208.11,176.68a1.16,1.16,0,0,1-1.79-.79,2.55,2.55,0,0,1,1-2.08,1.18,1.18,0,0,1,1.82.92A2.72,2.72,0,0,1,1208.11,176.68Z" transform="translate(0 0)"/><path id="STROKE_fcb536d8-00b4-44f3-90ea-53f8eb61c44a-6" data-name="STROKE fcb536d8-00b4-44f3-90ea-53f8eb61c44a" class="cls-41" d="M1201.88,178.71c-.09.1-.18.19-.26.29a2,2,0,0,0-.21.24l-.16.23a2.1,2.1,0,0,0-.14.24c0,.08-.06.14-.07.18s0,.11,0,.18a.67.67,0,0,0,0,.18c0,.05,0,.09,0,.13s0,.11,0,.19a.87.87,0,0,0,0,.21,1.66,1.66,0,0,0,.06.16l.08.18.1.17.34.5" transform="translate(0 0)"/><path id="STROKE_60eb6250-dec1-418f-86c3-059851a1cfe3-2" data-name="STROKE 60eb6250-dec1-418f-86c3-059851a1cfe3" class="cls-16" d="M1204.33,190.94a5.14,5.14,0,0,1-5.55-1.14,3.42,3.42,0,0,1-1-2,.76.76,0,0,1,.08-.42c.32-.62,1-.06,1.45.12a9.68,9.68,0,0,0,1.17.44,6.66,6.66,0,0,0,2.7.22c.95-.12,1.86-.47,2.82-.55.56,0,1.23.06,1.08.79a2.81,2.81,0,0,1-.79,1.23A5.24,5.24,0,0,1,1204.33,190.94Z" transform="translate(0 0)"/><path class="cls-3" d="M1275.05,302.05c-19,8.18-41.32,9.48-56.73-5.13a45.63,45.63,0,0,1-7.25-8.86c-5.45-8.59-6-14.24-6.09-17l24.45-.06c1.5,20.31,27.11,29.36,43.52,23.55Z" transform="translate(0 0)"/><path class="cls-20" d="M1461.58,325.92c-1.56-7-3.2-13.62-5.14-20.34-2.66.76-5.66,1.78-8.37,2.33.36,2.55.64,5.13,1.18,7.73C1447.21,324.49,1453,329.79,1461.58,325.92Z" transform="translate(0 0)"/><path class="cls-82" d="M1424,251.15c-.38,9.22-1.26,18.52-1.61,27.74-6.75,0-17.82.15-24.44.4,10.06-7.66,19.29-16.58,25.53-27.1C1423.69,251.84,1423.87,251.5,1424,251.15Z" transform="translate(0 0)"/><path class="cls-83" d="M1383.27,300.41v-2.66H1368.4c.2-4.72,6.49-9.3,12.25-13.08l3.11,4.4c4.76-3,9.57-6.26,14.21-9.78h0l1.59-.06a114.13,114.13,0,0,0,3.54,12.93C1396.22,294.66,1390.14,297.32,1383.27,300.41Z" transform="translate(0 0)"/><path class="cls-3" d="M1449.25,315.64c-33,6.82-35.42,2.8-46.14-23.48a114.13,114.13,0,0,1-3.54-12.93h0c6.69-.21,16.59-.33,22.81-.34a130.91,130.91,0,0,0,.8,22.71c.63,4.58,2.72,7.21,7.8,7.21a148.67,148.67,0,0,0,17-.9Z" transform="translate(0 0)"/><path id="STROKE_ae5e2045-94ad-461f-a630-537f31ca3306" data-name="STROKE ae5e2045-94ad-461f-a630-537f31ca3306" class="cls-84" d="M1367.32,297.48" transform="translate(0 0)"/><path class="cls-11" d="M1408.72,186.21a35.37,35.37,0,0,1-.46,16,15.55,15.55,0,0,1-14.44-3.21c2.91-3.33-.37-9.24-3.88-5.21-7.15-7-12.42-4.21-26-1.67-.54.1-1.1.21-1.67.3-.54-17.57,19.86-30.45,35.18-22a26.23,26.23,0,0,1,7,6.53A24.48,24.48,0,0,1,1408.72,186.21Z" transform="translate(0 0)"/><path class="cls-39" d="M1389.94,193.76l.2.18" transform="translate(0 0)"/><path class="cls-39" d="M1393.67,198.85l.15.12" transform="translate(0 0)"/><path class="cls-85" d="M1422.12,213.17c-2.61-10.37-2.46-22.26-13.4-27a24.48,24.48,0,0,0-4.23-9.34C1426.87,164.11,1425.67,199.76,1422.12,213.17Z" transform="translate(0 0)"/><path class="cls-27" d="M1405.49,202.66a15.82,15.82,0,0,1-5.82-.48,16.15,16.15,0,0,1-1.77-.62,15,15,0,0,1-4.07-2.58h0a4.46,4.46,0,0,0,1-2.06,4.08,4.08,0,0,0-1.36-4.14.49.49,0,0,0-.23-.14,2.07,2.07,0,0,0-1.91,0,4.23,4.23,0,0,0-.46.25l-.23.18a3.67,3.67,0,0,0-.47.43,3.08,3.08,0,0,0-.24.26,19.09,19.09,0,0,0-3.26-2.61c-.42-.26-.84-.47-1.26-.68a12.87,12.87,0,0,0-6.22-1.12c-.39,0-.81,0-1.22.1a76.59,76.59,0,0,0-8.24,1.46l-2.19.46c-1.13.24-2.33.47-3.61.72-.42,12.78,8.57,29.58,21.94,28.69a19.51,19.51,0,0,0,2-.23,22.13,22.13,0,0,0,2.9-.66l.13,0a23.59,23.59,0,0,0,2.63-1l1.08-.51a25.43,25.43,0,0,0,3.32-2c.83-.59,1.65-1.25,2.44-1.94.3-.27.59-.54.88-.83a26,26,0,0,0,1.87-2c.1-.13.21-.24.31-.38a28,28,0,0,0,4.8-9h0A16.56,16.56,0,0,1,1405.49,202.66Zm-36.51-.37a1.18,1.18,0,0,1-1.93.36,2.57,2.57,0,0,1-.37-2.26,1.19,1.19,0,0,1,2-.28A2.66,2.66,0,0,1,1369,202.29Zm8.35-1.89a1.18,1.18,0,0,1-1.94.38,2.57,2.57,0,0,1-.37-2.26,1.17,1.17,0,0,1,2-.28A2.78,2.78,0,0,1,1377.33,200.4Z" transform="translate(0 0)"/><path class="cls-14" d="M1369,202.29a1.17,1.17,0,0,1-1.93.36,2.54,2.54,0,0,1-.38-2.26,1.17,1.17,0,0,1,2-.27A2.72,2.72,0,0,1,1369,202.29Z" transform="translate(0 0)"/><path class="cls-14" d="M1377.33,200.41a1.17,1.17,0,0,1-1.93.36,2.52,2.52,0,0,1-.38-2.25,1.18,1.18,0,0,1,2-.28A2.72,2.72,0,0,1,1377.33,200.41Z" transform="translate(0 0)"/><path id="STROKE_fcb536d8-00b4-44f3-90ea-53f8eb61c44a-7" data-name="STROKE fcb536d8-00b4-44f3-90ea-53f8eb61c44a" class="cls-41" d="M1373.35,205.61l-.06.39c0,.13,0,.23,0,.32v.28a1.27,1.27,0,0,0,0,.28,1.49,1.49,0,0,0,0,.19,1.2,1.2,0,0,0,.06.17l.08.16.07.11.13.15.15.14.14.1.17.1.18.09.57.22" transform="translate(0 0)"/><path id="STROKE_60eb6250-dec1-418f-86c3-059851a1cfe3-3" data-name="STROKE 60eb6250-dec1-418f-86c3-059851a1cfe3" class="cls-16" d="M1382.3,214.29a5.14,5.14,0,0,1-5.22,2.22,3.47,3.47,0,0,1-2-1.08,1,1,0,0,1-.17-.39c-.08-.69.83-.64,1.27-.72a10.18,10.18,0,0,0,1.21-.3,6.76,6.76,0,0,0,2.35-1.36c.71-.64,1.27-1.44,2-2,.43-.36,1-.65,1.34,0a2.82,2.82,0,0,1,0,1.47A5.11,5.11,0,0,1,1382.3,214.29Z" transform="translate(0 0)"/><path class="cls-86" d="M1403.52,223a9.06,9.06,0,0,1-11.41,3.06,17.32,17.32,0,0,0-1.18-6.25,23.59,23.59,0,0,0,2.63-1l1.08-.51a25.43,25.43,0,0,0,3.32-2c.83-.59,1.65-1.25,2.44-1.94.3-.27.59-.54.88-.83C1401.87,216.88,1402.77,219.73,1403.52,223Z" transform="translate(0 0)"/><rect class="cls-87" x="1367.86" y="297.75" width="25.41" height="37.91"/><rect class="cls-88" x="1325.17" y="297.75" width="42.69" height="37.91"/><path class="cls-89" d="M1353,267.34H1310.3l14.87,30.41h42.69Zm-30.18,16.34-1.11-2.27h1.71l1.11,2.27Zm3.47-6.63-1.11-2.27h1.71l1.11,2.27Zm5.82,11.75-1.11-2.27h1.72l1.1,2.27Zm4.52-11.75-1.1-2.27h1.71l1.1,2.27Zm5.83,11.75-1.11-2.27h1.71l1.11,2.27Zm4.52-11.75-1.11-2.27h1.71l1.11,2.27Zm4.71,9.48h1.71l1.11,2.27h-1.71Z" transform="translate(0 0)"/><polygon class="cls-88" points="1354.43 263.74 1352.99 267.34 1310.3 267.34 1311.75 263.74 1354.43 263.74"/><polygon class="cls-90" points="1369.3 294.15 1367.86 297.75 1352.99 267.34 1354.43 263.74 1369.3 294.15"/><polygon class="cls-91" points="1370.12 297.75 1367.86 297.75 1369.3 294.15 1370.12 297.75"/><polygon class="cls-19" points="1327.99 277.05 1326.28 277.05 1325.17 274.78 1326.88 274.78 1327.99 277.05"/><polygon class="cls-19" points="1324.52 283.68 1322.81 283.68 1321.7 281.41 1323.41 281.41 1324.52 283.68"/><polygon class="cls-19" points="1338.33 277.05 1336.62 277.05 1335.52 274.78 1337.23 274.78 1338.33 277.05"/><polygon class="cls-19" points="1348.68 277.05 1346.97 277.05 1345.86 274.78 1347.57 274.78 1348.68 277.05"/><polygon class="cls-19" points="1333.81 288.8 1332.1 288.8 1330.99 286.53 1332.71 286.53 1333.81 288.8"/><polygon class="cls-19" points="1344.16 288.8 1342.45 288.8 1341.34 286.53 1343.05 286.53 1344.16 288.8"/><polygon class="cls-19" points="1354.5 288.8 1352.79 288.8 1351.68 286.53 1353.39 286.53 1354.5 288.8"/><path class="cls-9" d="M1339.49,260.8l-1.79-4.14-.35.06a36.83,36.83,0,0,0-5.89,1.34c-2.68.89-5,2.34-5.47,4.84,0,.1,0,.22,0,.33a1.39,1.39,0,0,0,0,.35,2.1,2.1,0,0,0,2.12,2.08h0a3,3,0,0,0,.79,0,16.58,16.58,0,0,0,4.15-1.37c1.29-.59,2.54-1.29,3.76-2l.45-.25h0c.33-.18.67-.38,1-.55s.61-.34.91-.51Z" transform="translate(0 0)"/><path class="cls-9" d="M1380.63,284.1l2.64,3.66c-.07.09-.16.17-.23.27a37.32,37.32,0,0,1-4.17,4.38c-2.14,1.85-4.57,3.1-7,2.22l-.31-.13a1.26,1.26,0,0,1-.3-.18,2.1,2.1,0,0,1-.7-2.88v0a3.32,3.32,0,0,1,.39-.68,16.59,16.59,0,0,1,3.3-2.86c1.18-.81,2.41-1.52,3.64-2.22l.44-.26h0c.33-.2.67-.38,1-.58s.61-.35.9-.52Z" transform="translate(0 0)"/><path class="cls-92" d="M1417.28,224.49a89,89,0,0,1-2,13.6c-3.1,15.87-14.51,29.38-27.39,39.56,4.14-47.65-16.23-28.21-48.29-15.93l-2.6-6.07c29.53-14.78,35.27-23.61,55.08-29.55a9.06,9.06,0,0,0,11.41-3.06A28.59,28.59,0,0,1,1417.28,224.49Z" transform="translate(0 0)"/><path class="cls-32" d="M1424,251.15c-.16.35-.34.69-.52,1-6.24,10.52-15.47,19.44-25.53,27.1h0c-4.64,3.52-9.45,6.77-14.21,9.78l-3.11-4.4-.82-1.16c2.72-1.81,5.44-3.76,8.09-5.86,12.88-10.18,24.29-23.69,27.39-39.56a89,89,0,0,0,2-13.6C1427.1,228.44,1430,238.93,1424,251.15Z" transform="translate(0 0)"/><path class="cls-9" d="M1594.11,189.65l4.24,1.52c.07-.09.12-.19.2-.3a38.11,38.11,0,0,0,3-5.21c1.18-2.57,1.71-5.26.2-7.3-.06-.09-.14-.17-.21-.26a1.18,1.18,0,0,0-.25-.25,2.11,2.11,0,0,0-3,.13v0a3.25,3.25,0,0,0-.55.56,16.71,16.71,0,0,0-1.83,4c-.45,1.36-.79,2.75-1.12,4.12l-.13.49h0c-.1.37-.18.74-.28,1.11s-.17.68-.26,1C1594.18,189.38,1594.13,189.52,1594.11,189.65Z" transform="translate(0 0)"/><path class="cls-9" d="M1524.57,188.08l4.3-1.35c0-.11,0-.22,0-.35a36.7,36.7,0,0,0-.72-6c-.61-2.76-1.8-5.23-4.24-5.95-.1,0-.21,0-.33-.08a1.39,1.39,0,0,0-.35,0,2.1,2.1,0,0,0-2.28,1.89v0a2.9,2.9,0,0,0-.1.79,17.06,17.06,0,0,0,.93,4.26c.46,1.35,1,2.66,1.59,4l.19.47h0c.14.35.3.7.45,1.05s.27.65.4,1C1524.46,187.83,1524.51,188,1524.57,188.08Z" transform="translate(0 0)"/><path class="cls-20" d="M1555.38,367.73c-5.17-4.94-10-9.78-14.76-14.91,2-1.88,4.45-3.92,6.32-6,2,1.62,4.06,3.2,6,5C1561.59,354.68,1563.14,362.36,1555.38,367.73Z" transform="translate(0 0)"/><path class="cls-20" d="M1490.26,326.15c2.38-6.75,4.81-13.13,7.54-19.58,2.54,1.08,5.4,2.45,8,3.32-.66,2.49-1.26,5-2.1,7.54C1504.7,326.46,1498.33,331,1490.26,326.15Z" transform="translate(0 0)"/><path class="cls-93" d="M1555.75,215.91a42.71,42.71,0,0,1,1.24,8.25,14.19,14.19,0,0,0,11.75-.66,26,26,0,0,1-2.14-6.83,25.85,25.85,0,0,1-3.85.26,29.9,29.9,0,0,1-3.11-.21A25.64,25.64,0,0,1,1555.75,215.91Z" transform="translate(0 0)"/><path class="cls-25" d="M1555.75,215.91l-.15-.71" transform="translate(0 0)"/><path class="cls-94" d="M1546.94,346.86l6,5c19.28-15.47,32.24-40.34,30.57-65.44l-9.72,0c-.06,2.8-.64,8.45-6.09,17a45.63,45.63,0,0,1-7.25,8.86C1558.58,323.8,1554.18,337.37,1546.94,346.86Z" transform="translate(0 0)"/><path class="cls-95" d="M1545.37,242.62c3,15.21,4.5,28.28,4,43.72l24.45.06,9.72,0c-4-62.58,3.17-59.28,15.71-95.36l-5.52-2.17c-5.16,12.45-11.68,32.86-25,34.6a14.19,14.19,0,0,1-11.75.66c-10.69-.84-22.59-23.75-27.66-37.75l-5.32,1.68C1529.69,209.45,1542.5,228.24,1545.37,242.62Z" transform="translate(0 0)"/><path class="cls-11" d="M1536.76,198.18a35.42,35.42,0,0,0,9.43,12.89,15.55,15.55,0,0,0,10.08-10.83c-4.29-1.09-4.94-7.82.24-6.5,1.91-9.82,7.83-10.51,20.45-16.12.5-.22,1-.45,1.55-.7-9.53-14.78-33.63-13.8-41.49,1.8a26.32,26.32,0,0,0-2.08,9.37A24.56,24.56,0,0,0,1536.76,198.18Z" transform="translate(0 0)"/><path class="cls-39" d="M1556.51,193.74a1.1,1.1,0,0,0-.06.26" transform="translate(0 0)"/><path class="cls-39" d="M1556.32,200.05a.77.77,0,0,1,0,.19" transform="translate(0 0)"/><path class="cls-96" d="M1541,228c-3.73-10-10.61-19.73-4.26-29.81a24.56,24.56,0,0,1-1.82-10.09C1509.28,190.28,1530.49,219,1541,228Z" transform="translate(0 0)"/><path class="cls-27" d="M1546.2,211.06h0a27.92,27.92,0,0,0,9.07,4.71l.47.13a25.64,25.64,0,0,0,3.89.81,29.9,29.9,0,0,0,3.11.21,25.85,25.85,0,0,0,3.85-.26l1.18-.2a21.92,21.92,0,0,0,2.84-.73,21.29,21.29,0,0,0,2.77-1.1c.61-.29,1.21-.61,1.79-1,11.52-6.85,9.39-25.79,1.79-36.07-1.19.52-2.31,1-3.38,1.46l-2.06.86a76.93,76.93,0,0,0-7.62,3.47c-.37.19-.73.41-1.06.61a12.93,12.93,0,0,0-4.49,4.45c-.22.41-.45.82-.65,1.28a19.14,19.14,0,0,0-1.2,4,2.21,2.21,0,0,0-.35-.08,3.68,3.68,0,0,0-.63-.09l-.29,0a3.92,3.92,0,0,0-.52.06,2.05,2.05,0,0,0-1.58,1.08.53.53,0,0,0-.11.24,4.08,4.08,0,0,0,1.23,4.18,4.43,4.43,0,0,0,2,1.11v0a14.71,14.71,0,0,1-1.89,4.43,15.16,15.16,0,0,1-1.11,1.52,15.92,15.92,0,0,1-4.52,3.7A16.37,16.37,0,0,1,1546.2,211.06Zm31.41-24.15a1.18,1.18,0,0,1,1.81-.91,2.56,2.56,0,0,1,1,2.07,1.18,1.18,0,0,1-1.79.8A2.66,2.66,0,0,1,1577.61,186.91Zm-7.93,3.19a1.18,1.18,0,0,1,1.82-.91,2.58,2.58,0,0,1,1,2.07,1.18,1.18,0,0,1-1.81.79A2.76,2.76,0,0,1,1569.68,190.1Z" transform="translate(0 0)"/><path class="cls-14" d="M1578.6,188.87a1.16,1.16,0,0,0,1.79-.79,2.53,2.53,0,0,0-1-2.07,1.18,1.18,0,0,0-1.82.91A2.66,2.66,0,0,0,1578.6,188.87Z" transform="translate(0 0)"/><path class="cls-14" d="M1570.67,192.06a1.17,1.17,0,0,0,1.79-.79,2.51,2.51,0,0,0-1-2.07,1.17,1.17,0,0,0-1.81.91A2.66,2.66,0,0,0,1570.67,192.06Z" transform="translate(0 0)"/><path id="STROKE_fcb536d8-00b4-44f3-90ea-53f8eb61c44a-8" data-name="STROKE fcb536d8-00b4-44f3-90ea-53f8eb61c44a" class="cls-41" d="M1576.89,194.09a3.58,3.58,0,0,1,.27.29l.21.24.16.23a2,2,0,0,1,.13.25l.08.18a1.46,1.46,0,0,1,0,.17.67.67,0,0,1,0,.18v.13c0,.05,0,.11,0,.2s0,.15,0,.2l-.06.16a1.5,1.5,0,0,1-.09.18.85.85,0,0,1-.1.17l-.34.51" transform="translate(0 0)"/><path id="STROKE_60eb6250-dec1-418f-86c3-059851a1cfe3-4" data-name="STROKE 60eb6250-dec1-418f-86c3-059851a1cfe3" class="cls-16" d="M1574.45,206.32a5.14,5.14,0,0,0,5.55-1.14,3.48,3.48,0,0,0,1-2,1,1,0,0,0-.08-.42c-.32-.61-1-.05-1.45.13a9.63,9.63,0,0,1-1.17.43,6.66,6.66,0,0,1-2.7.22c-1-.12-1.87-.46-2.82-.55-.56,0-1.24.07-1.09.79a2.86,2.86,0,0,0,.8,1.23A5.24,5.24,0,0,0,1574.45,206.32Z" transform="translate(0 0)"/><path class="cls-3" d="M1503.73,317.43c19,8.18,41.32,9.48,56.73-5.13a45.63,45.63,0,0,0,7.25-8.86c5.45-8.59,6-14.24,6.09-17l-24.45-.06c-1.5,20.31-27.11,29.36-43.52,23.55Z" transform="translate(0 0)"/><polygon class="cls-97" points="1596.71 141.46 1583.22 163.88 1573.21 157.86 1570.35 156.14 1560.5 150.22 1573.99 127.79 1583.84 133.72 1586.7 135.43 1586.7 135.44 1588.05 136.25 1589.69 137.23 1589.69 137.24 1591.45 138.3 1592.3 138.81 1592.56 138.96 1594.58 140.18 1596.71 141.46"/><polygon class="cls-98" points="1608.47 148.53 1594.98 170.96 1590.53 168.28 1587.67 166.56 1583.22 163.88 1596.71 141.46 1597.27 141.8 1597.28 141.8 1601.16 144.14 1604.02 145.85 1608.47 148.53"/><rect class="cls-99" x="1576.86" y="132.7" width="3.33" height="26.17" transform="translate(301.01 -792.8) rotate(31.03)"/><rect class="cls-99" x="1594.18" y="143.12" width="3.33" height="26.17" transform="translate(308.86 -800.24) rotate(31.03)"/><line class="cls-25" x1="1589.69" y1="137.24" x2="1589.69" y2="137.23"/><path class="cls-99" d="M1594.55,134.81a18.75,18.75,0,0,1-2.25,4l-.85-.51c8.17-18-10.69-16.67-1.76-1.07l-1.64-1c-4.91-4.14-5.25-15.44,2.88-14.56C1597.23,122.38,1596.78,129.46,1594.55,134.81Z" transform="translate(0 0)"/><path class="cls-100" d="M1597.28,141.8h0l-.56-.34-2.13-1.28c14,1.2,12.63-14.13-2-1.22l-.26-.15a18.75,18.75,0,0,0,2.25-4C1608.65,122.68,1613.49,142.06,1597.28,141.8Z" transform="translate(0 0)"/><text class="cls-101" transform="translate(68.35 65.19)">Phases</text><text class="cls-102" transform="translate(259.68 65.19)">Before the event</text><text class="cls-102" transform="translate(907.14 65.19)">During the event</text><text class="cls-102" transform="translate(1483.62 65.19)"><tspan class="cls-103">A</tspan><tspan x="13.16" y="0">fter the event</tspan></text><text class="cls-101" transform="translate(67.05 284.08)">Actions</text><text class="cls-101" transform="translate(63.63 614.25)">Emotion</text><text class="cls-101" transform="translate(39.22 854.95)">Opportunities</text><path class="cls-104" d="M1624.13,539c-102.85-29.32-212.12-51.09-319.51-44.6-80,4.84-157.88,42.8-224.89,84.91-95.3,59.87-226.26,152.05-344.43,105.09-53.66-21.33-75.71-77.78-125-102.58-39.14-19.71-73,0-104.33,23.24a208.44,208.44,0,0,1-100.67,39.73c-83,9.22-164.86-38.19-229.49-85.43V745.19H1624.36Z" transform="translate(0 0)"/><path class="cls-105" d="M1624.13,664.11c-83.51-2-163.2-23.25-221-56.63-42-24.23-80.79-60.31-123.26-81.71-22.81-11.49-51-17.56-55.73-16.1-51.19,15.84-100.15,41.83-144.39,69.63-95.3,59.87-226.26,152.05-344.43,105.09-53.66-21.33-75.71-77.78-125-102.58-39.14-19.71-73,0-104.33,23.24a208.44,208.44,0,0,1-100.67,39.73c-83,9.22-164.86-38.19-229.49-85.43" transform="translate(0 0)"/><circle class="cls-17" cx="254.45" cy="498.05" r="12.32"/><text class="cls-106" transform="translate(251.4 503.66)">1</text><circle class="cls-17" cx="286.8" cy="781.68" r="12.32"/><text class="cls-106" transform="translate(283.75 787.29)">1</text><circle class="cls-17" cx="415.17" cy="505.66" r="12.32"/><text class="cls-106" transform="translate(409.88 511.27)">2</text><circle class="cls-17" cx="516.94" cy="781.68" r="12.32"/><text class="cls-106" transform="translate(511.65 787.29)">2</text><circle class="cls-17" cx="738.35" cy="606.47" r="12.32"/><text class="cls-106" transform="translate(733.33 612.08)">3</text><circle class="cls-17" cx="755.2" cy="781.68" r="12.32"/><text class="cls-106" transform="translate(750.19 787.29)">3</text><circle class="cls-17" cx="901.16" cy="523.24" r="12.32"/><text class="cls-106" transform="translate(896.14 528.86)">4</text><circle class="cls-17" cx="1008.82" cy="781.68" r="12.32"/><text class="cls-106" transform="translate(1003.8 787.29)">4</text><circle class="cls-17" cx="1294.96" cy="650.9" r="12.32"/><text class="cls-106" transform="translate(1289.65 656.51)">5</text><circle class="cls-17" cx="1270.24" cy="781.68" r="12.32"/><text class="cls-106" transform="translate(1264.93 787.29)">5</text><circle class="cls-17" cx="1483.85" cy="684.71" r="12.32"/><text class="cls-106" transform="translate(1478.53 690.32)">6</text><circle class="cls-17" cx="1518.32" cy="781.68" r="12.32"/><text class="cls-106" transform="translate(1513 787.29)">6</text><path class="cls-107" d="M1624.13,539c-102.85-29.32-212.12-51.09-319.51-44.6-80,4.84-157.88,42.8-224.89,84.91-95.3,59.87-226.26,152.05-344.43,105.09-53.66-21.33-75.71-77.78-125-102.58-39.14-19.71-73,0-104.33,23.24a208.44,208.44,0,0,1-100.67,39.73c-83,9.22-164.86-38.19-229.49-85.43" transform="translate(0 0)"/><circle class="cls-108" cx="251.74" cy="607.91" r="6"/><circle class="cls-108" cx="413.94" cy="642.91" r="6"/><circle class="cls-108" cx="576.14" cy="574.12" r="6"/><circle class="cls-108" cx="738.35" cy="685.63" r="6"/><circle class="cls-108" cx="900.55" cy="677.84" r="6"/><circle class="cls-108" cx="1062.75" cy="589.25" r="6"/><circle class="cls-108" cx="1224.96" cy="509.67" r="6"/><circle class="cls-109" cx="1387.16" cy="597.36" r="6"/><circle class="cls-108" cx="1387.16" cy="494.72" r="6"/><circle class="cls-108" cx="1549.36" cy="519.37" r="6"/><circle class="cls-109" cx="1549.36" cy="656.9" r="6"/><line class="cls-110" x1="1493.13" y1="644.61" x2="1504.07" y2="620.65"/></g><g id="Layer_3" data-name="Layer 3"><text class="cls-111" transform="translate(211.99 397.11)"><tspan class="cls-112">R</tspan><tspan x="9.55" y="0">eceive the </tspan><tspan x="-8.23" y="19.8">invitation card</tspan></text><text class="cls-111" transform="translate(351.86 397.11)"><tspan class="cls-112">R</tspan><tspan x="9.55" y="0">ead instructions</tspan></text><text class="cls-111" transform="translate(517.57 397.11)"><tspan class="cls-113">L</tspan><tspan x="7.79" y="0">ook for the first </tspan><tspan x="43.44" y="19.8">clue</tspan></text><text class="cls-111" transform="translate(672.92 397.11)">Ca<tspan class="cls-114" x="19.87" y="0">n</tspan><tspan x="28.88" y="0">t find the clue</tspan></text><text class="cls-111" transform="translate(857.21 397.11)">Ask for help</text><text class="cls-111" transform="translate(1008.92 397.11)">Find clues with <tspan x="38.06" y="19.8">help</tspan></text><text class="cls-111" transform="translate(1166.94 397.11)">Find other clues <tspan x="13.52" y="19.8">without help</tspan></text><text class="cls-111" transform="translate(1324.09 397.11)">Find the <tspan class="cls-115" x="63.19" y="0">T</tspan><tspan x="71.2" y="0">reasure </tspan><tspan x="42.03" y="19.8">Chest</tspan></text><text class="cls-111" transform="translate(1503.32 397.11)"><tspan class="cls-112">R</tspan><tspan x="9.55" y="0">eceive gifts</tspan></text><text class="cls-111" transform="translate(211.05 817.82)">Deliver well-designed <tspan x="0.93" y="19.8">invitation card to give </tspan><tspan x="-2.93" y="39.6">participants a sense of </tspan><tspan x="0.12" y="59.4">being invited and feel </tspan><tspan x="-12.99" y="79.2">more li</tspan><tspan class="cls-116" x="36.21" y="79.2">k</tspan><tspan x="44.64" y="79.2">ely to ta</tspan><tspan class="cls-116" x="102.13" y="79.2">k</tspan><tspan x="110.56" y="79.2">e part in</tspan></text><text class="cls-111" transform="translate(472.29 817.82)">visualize the <tspan x="-39.43" y="19.8">instructions as much as </tspan><tspan x="-37.7" y="39.6">possibl</tspan><tspan class="cls-117" x="13.43" y="39.6">e</tspan><tspan x="22.6" y="39.6">, and integrate </tspan><tspan x="-23.73" y="59.4">the instruction with </tspan><tspan x="1.39" y="79.2">game props</tspan></text><text class="cls-111" transform="translate(655.43 817.82)">Increase the difficulty of the <tspan class="cls-115" x="26.22" y="19.8">T</tspan><tspan x="34.22" y="19.8">reasure Hunt game </tspan><tspan x="26.94" y="39.6">progressively so the </tspan><tspan x="9.35" y="59.4">participants would</tspan><tspan class="cls-114" x="141.29" y="59.4">n</tspan><tspan x="150.3" y="59.4">t feel </tspan><tspan x="4.31" y="79.2">frustrated in the beginning</tspan></text><text class="cls-111" transform="translate(906.44 817.82)"><tspan class="cls-118">A</tspan><tspan x="10.68" y="0">t least one of the organizer </tspan><tspan x="9.03" y="19.8">of the event should follow </tspan><tspan x="7.64" y="39.6">the participants during the </tspan><tspan x="28.44" y="59.4">process and provide </tspan><tspan x="35.14" y="79.2">assistance actively</tspan></text><text class="cls-111" transform="translate(1173.66 817.82)">An organizer should wait at <tspan x="-0.44" y="19.8">the location of the </tspan><tspan class="cls-115" x="134.43" y="19.8">T</tspan><tspan x="142.43" y="19.8">reasure </tspan><tspan x="-0.97" y="39.6">Chest to avoid and mediate </tspan><tspan x="-9.21" y="59.4">conflicts between participants </tspan><tspan x="-3.04" y="79.2">who find the </tspan><tspan class="cls-115" x="90.68" y="79.2">T</tspan><tspan x="98.69" y="79.2">reasure Chest </tspan><tspan x="37.72" y="99">at different times</tspan></text><text class="cls-111" transform="translate(1428.5 817.82)">Prepare consolation gifts <tspan x="32.81" y="19.8">as souvenirs for </tspan><tspan x="3.6" y="39.6">participants who cannot </tspan><tspan x="-2" y="59.4">find the treasure b</tspan><tspan class="cls-119" x="130.34" y="59.4">o</tspan><tspan x="139.17" y="59.4">x first, </tspan><tspan x="0.87" y="79.2">so as to ensure that they </tspan><tspan x="25.49" y="99">would</tspan><tspan class="cls-120" x="69.33" y="99">n</tspan><tspan x="78.34" y="99">&apos;t be upset</tspan></text><text class="cls-121" transform="translate(372.99 536.58)">Why are the <tspan x="-8.35" y="19.2">instructions so </tspan><tspan x="-20.78" y="38.4">lon</tspan><tspan class="cls-122" x="0.81" y="38.4">g</tspan><tspan x="9.64" y="38.4">? </tspan><tspan class="cls-123" x="21.17" y="38.4">L</tspan><tspan class="cls-124" x="28.73" y="38.4">ooks kinda </tspan><tspan x="8.28" y="57.6">obscur</tspan><tspan class="cls-125" x="56.1" y="57.6">e</tspan><tspan x="65" y="57.6">...</tspan></text><text class="cls-121" transform="translate(843.86 553.77)">Is it ok to ask for <tspan x="-0.42" y="19.2">hel</tspan><tspan class="cls-126" x="21.01" y="19.2">p</tspan><tspan x="29.43" y="19.2">? Should</tspan><tspan class="cls-127" x="89.94" y="19.2">n</tspan><tspan x="98.68" y="19.2">t I </tspan><tspan x="-10.65" y="38.4">complete the game </tspan><tspan x="3.22" y="57.6">independentl</tspan><tspan class="cls-128" x="96.2" y="57.6">y</tspan><tspan x="103.99" y="57.6">?</tspan></text><text class="cls-121" transform="translate(997.23 477.49)">Ah, I think I get the <tspan x="-2.38" y="19.2">game rules, I think I </tspan><tspan x="7.18" y="38.4">can find the next </tspan><tspan x="19.61" y="57.6">clue my own.</tspan></text><text class="cls-121" transform="translate(1173.49 553.13)"><tspan class="cls-129">Y</tspan><tspan x="7.98" y="0">es! I did it. Im </tspan><tspan x="13.24" y="19.2">gonna win!</tspan></text><text class="cls-121" transform="translate(1317.16 649.43)">Oh no! It was just a <tspan x="0" y="19.2">couple of seconds </tspan><tspan x="0" y="38.4">that I can be the </tspan><tspan x="0" y="57.6">first.</tspan></text><text class="cls-130" transform="translate(1485.78 572.18)">participants who <tspan x="2.97" y="19.2">coud</tspan><tspan class="cls-131" x="38.07" y="19.2">n</tspan><tspan x="46.81" y="19.2">t find the </tspan><tspan class="cls-132" x="-10.26" y="38.4">T</tspan><tspan x="-2.5" y="38.4">reasure Chest first</tspan></text><text class="cls-121" transform="translate(1355.32 476.15)">I made it!</text><text class="cls-121" transform="translate(1489.6 469.14)">Such an amazing <tspan x="38.14" y="19.2">game!</tspan></text><text class="cls-121" transform="translate(212.69 528.59)">Is this event <tspan x="-12.78" y="19.2">interestin</tspan><tspan class="cls-122" x="52.22" y="19.2">g</tspan><tspan x="61.06" y="19.2">? Is it </tspan><tspan x="-3.41" y="38.4">worth tryin</tspan><tspan class="cls-122" x="70.7" y="38.4">g</tspan><tspan x="79.54" y="38.4">?</tspan></text><text class="cls-121" transform="translate(524.3 533.5)"><tspan class="cls-129">Y</tspan><tspan x="7.98" y="0">es! Finally the </tspan><tspan x="9.13" y="19.2">game starts!</tspan></text><text class="cls-121" transform="translate(698.76 637.85)">Why is it so <tspan x="10.62" y="19.2">difficult? </tspan></text><text class="cls-121" transform="translate(1504.07 685.73)">So sad that I <tspan x="0" y="19.2">coud</tspan><tspan class="cls-131" x="35.1" y="19.2">n</tspan><tspan x="43.84" y="19.2">t get the </tspan><tspan x="0" y="38.4">treasur</tspan><tspan class="cls-128" x="55.22" y="38.4">e</tspan><tspan x="64.18" y="38.4"></tspan></text></g></svg>